<svg width="24" height="24" viewBox="0 0 24 24" fill="none" xmlns="http://www.w3.org/2000/svg">
<rect width="24" height="24" fill="#E5E5E5"/>
<g id="Home Page" clip-path="url(#clip0_2_803)">
<rect width="1440" height="6191" transform="translate(-1141 -5929)" fill="white"/>
<g id="Group 1155">
<rect id="Rectangle 1330" x="-1141" y="-146.156" width="1440" height="407.842" fill="#12595C"/>
<g id="Group 969">
</g>
<g id="Group 20375">
<g id="Sosmed">
<g id="Frame 23">
<rect x="-12" y="-12" width="48" height="48" rx="24" fill="#EAEAEA"/>
<g id="ant-design:instagram-filled" clip-path="url(#clip1_2_803)">
<path id="Vector" d="M12.0001 7.83374C9.7064 7.83374 7.83452 9.70562 7.83452 11.9994C7.83452 14.2931 9.7064 16.165 12.0001 16.165C14.2939 16.165 16.1658 14.2931 16.1658 11.9994C16.1658 9.70562 14.2939 7.83374 12.0001 7.83374ZM24.4939 11.9994C24.4939 10.2744 24.5095 8.56499 24.4126 6.84312C24.3158 4.84312 23.8595 3.06812 22.397 1.60562C20.9314 0.139992 19.1595 -0.313133 17.1595 -0.410008C15.4345 -0.506883 13.7251 -0.491258 12.0033 -0.491258C10.2783 -0.491258 8.5689 -0.506883 6.84702 -0.410008C4.84702 -0.313133 3.07202 0.143117 1.60952 1.60562C0.143898 3.07124 -0.309227 4.84312 -0.406102 6.84312C-0.502977 8.56812 -0.487352 10.2775 -0.487352 11.9994C-0.487352 13.7212 -0.502977 15.4337 -0.406102 17.1556C-0.309227 19.1556 0.147023 20.9306 1.60952 22.3931C3.07515 23.8587 4.84702 24.3119 6.84702 24.4087C8.57202 24.5056 10.2814 24.49 12.0033 24.49C13.7283 24.49 15.4376 24.5056 17.1595 24.4087C19.1595 24.3119 20.9345 23.8556 22.397 22.3931C23.8626 20.9275 24.3158 19.1556 24.4126 17.1556C24.5126 15.4337 24.4939 13.7244 24.4939 11.9994ZM12.0001 18.4087C8.45327 18.4087 5.59077 15.5462 5.59077 11.9994C5.59077 8.45249 8.45327 5.58999 12.0001 5.58999C15.547 5.58999 18.4095 8.45249 18.4095 11.9994C18.4095 15.5462 15.547 18.4087 12.0001 18.4087ZM18.672 6.82437C17.8439 6.82437 17.1751 6.15562 17.1751 5.32749C17.1751 4.49937 17.8439 3.83062 18.672 3.83062C19.5001 3.83062 20.1689 4.49937 20.1689 5.32749C20.1691 5.52413 20.1306 5.71889 20.0555 5.90061C19.9803 6.08233 19.8701 6.24745 19.731 6.38649C19.592 6.52554 19.4269 6.63579 19.2451 6.71093C19.0634 6.78606 18.8687 6.82461 18.672 6.82437Z" fill="#12595C"/>
</g>
</g>
</g>
</g>
</g>
</g>
<defs>
<clipPath id="clip0_2_803">
<rect width="1440" height="6191" fill="white" transform="translate(-1141 -5929)"/>
</clipPath>
<clipPath id="clip1_2_803">
<rect width="24" height="24" fill="white"/>
</clipPath>
</defs>
</svg>
