<svg width="24" height="25" viewBox="0 0 24 25" fill="none" xmlns="http://www.w3.org/2000/svg">
<g id="bx:bxs-phone-call">
<path id="Vector" d="M20 11.8427H22C22 6.71275 18.127 2.84375 12.99 2.84375V4.84375C17.052 4.84375 20 7.78675 20 11.8427Z" fill="white"/>
<path id="Vector_2" d="M13 8.84399C15.103 8.84399 16 9.74099 16 11.844H18C18 8.61899 16.225 6.84399 13 6.84399V8.84399ZM16.422 14.287C16.2299 14.1123 15.9774 14.0192 15.7178 14.0272C15.4583 14.0352 15.212 14.1438 15.031 14.33L12.638 16.791C12.062 16.681 10.904 16.32 9.71204 15.131C8.52004 13.938 8.15904 12.777 8.05204 12.205L10.511 9.81099C10.6975 9.63012 10.8062 9.38381 10.8142 9.1242C10.8222 8.86458 10.7289 8.61203 10.554 8.41999L6.85904 4.35699C6.68408 4.16435 6.44092 4.04749 6.18119 4.03125C5.92146 4.015 5.66564 4.10065 5.46804 4.26999L3.29804 6.13099C3.12515 6.3045 3.02196 6.53544 3.00804 6.77999C2.99304 7.02999 2.70704 12.952 7.29904 17.546C11.305 21.551 16.323 21.844 17.705 21.844C17.907 21.844 18.031 21.838 18.064 21.836C18.3086 21.8223 18.5394 21.7187 18.712 21.545L20.572 19.374C20.7415 19.1765 20.8273 18.9208 20.8113 18.661C20.7952 18.4013 20.6785 18.1581 20.486 17.983L16.422 14.287Z" fill="white"/>
</g>
</svg>
