<svg width="61" height="49" viewBox="0 0 61 49" fill="none" xmlns="http://www.w3.org/2000/svg">
<g id="Group 33829">
<rect id="Rectangle 101" width="2.7503" height="11.1776" rx="1.37515" transform="matrix(0.964973 -0.262351 -0.255329 -0.966854 17.168 13.1758)" fill="#12595C"/>
<rect id="Rectangle 102" width="2.79439" height="11.0012" rx="1.39719" transform="matrix(0.255331 0.966854 0.964973 -0.262348 11.6738 7.58008)" fill="#12595C"/>
<path id="Ellipse 58" d="M56.7728 7.12545C58.0542 6.7771 58.8471 5.42203 58.4892 4.06696C58.1314 2.71188 56.7769 1.94063 55.4956 2.28897C54.2142 2.63732 53.4213 3.99238 53.7791 5.34746C54.137 6.70253 55.4915 7.47379 56.7728 7.12545Z" stroke="#CAE2A8" stroke-width="2.68228"/>
<path id="Ellipse 59" d="M5.26892 46.2934C6.55025 45.9451 7.34319 44.59 6.98533 43.2349C6.62746 41.8799 5.27298 41.1086 3.99165 41.4569C2.71032 41.8053 1.91738 43.1604 2.27524 44.5154C2.63311 45.8705 3.98759 46.6418 5.26892 46.2934Z" stroke="#CAE2A8" stroke-width="2.68228"/>
</g>
</svg>
