<svg width="112" height="237" viewBox="0 0 112 237" fill="none" xmlns="http://www.w3.org/2000/svg">
<g id="Group 33828">
<g id="Titik-titik" opacity="0.2">
<rect id="Rectangle 3 Copy 19" x="66.1814" y="123" width="5.14481" height="5.09102" rx="2.54551" transform="rotate(90 66.1814 123)" fill="#12595C"/>
<rect id="Rectangle 3 Copy 60" x="112" y="123" width="5.14481" height="5.0909" rx="2.54545" transform="rotate(90 112 123)" fill="#12595C"/>
<rect id="Rectangle 3 Copy 18" x="66.1814" y="138.436" width="5.14481" height="5.09102" rx="2.54551" transform="rotate(90 66.1814 138.436)" fill="#12595C"/>
<rect id="Rectangle 3 Copy 61" x="112" y="138.436" width="5.14481" height="5.0909" rx="2.54545" transform="rotate(90 112 138.436)" fill="#12595C"/>
<rect id="Rectangle 3 Copy 17" x="66.1814" y="153.869" width="5.14481" height="5.09102" rx="2.54551" transform="rotate(90 66.1814 153.869)" fill="#12595C"/>
<rect id="Rectangle 3 Copy 62" x="112" y="153.869" width="5.14481" height="5.0909" rx="2.54545" transform="rotate(90 112 153.869)" fill="#12595C"/>
<rect id="Rectangle 3 Copy 16" x="66.1814" y="169.303" width="5.14481" height="5.09102" rx="2.54551" transform="rotate(90 66.1814 169.303)" fill="#12595C"/>
<rect id="Rectangle 3 Copy 63" x="112" y="169.303" width="5.14481" height="5.0909" rx="2.54545" transform="rotate(90 112 169.303)" fill="#12595C"/>
<rect id="Rectangle 3 Copy 15" x="66.1814" y="184.738" width="5.14481" height="5.09102" rx="2.54551" transform="rotate(90 66.1814 184.738)" fill="#12595C"/>
<rect id="Rectangle 3 Copy 64" x="112" y="184.738" width="5.14481" height="5.0909" rx="2.54545" transform="rotate(90 112 184.738)" fill="#12595C"/>
<rect id="Rectangle 3 Copy 14" x="66.1814" y="200.172" width="5.14481" height="5.09102" rx="2.54551" transform="rotate(90 66.1814 200.172)" fill="#12595C"/>
<rect id="Rectangle 3 Copy 65" x="112" y="200.172" width="5.14481" height="5.0909" rx="2.54545" transform="rotate(90 112 200.172)" fill="#12595C"/>
<rect id="Rectangle 3 Copy 13" x="66.1814" y="215.607" width="5.14481" height="5.09102" rx="2.54551" transform="rotate(90 66.1814 215.607)" fill="#12595C"/>
<rect id="Rectangle 3 Copy 66" x="112" y="215.607" width="5.14481" height="5.0909" rx="2.54545" transform="rotate(90 112 215.607)" fill="#12595C"/>
<rect id="Rectangle 3 Copy 12" x="66.1814" y="231.041" width="5.14481" height="5.09102" rx="2.54551" transform="rotate(90 66.1814 231.041)" fill="#12595C"/>
<rect id="Rectangle 3 Copy 67" x="112" y="231.041" width="5.14481" height="5.0909" rx="2.54545" transform="rotate(90 112 231.041)" fill="#12595C"/>
<rect id="Rectangle 3 Copy 29" x="50.9082" y="123" width="5.14481" height="5.0909" rx="2.54545" transform="rotate(90 50.9082 123)" fill="#12595C"/>
<rect id="Rectangle 3 Copy 68" x="96.7268" y="123" width="5.14481" height="5.09102" rx="2.54551" transform="rotate(90 96.7268 123)" fill="#12595C"/>
<rect id="Rectangle 3 Copy 28" x="50.9082" y="138.436" width="5.14481" height="5.0909" rx="2.54545" transform="rotate(90 50.9082 138.436)" fill="#12595C"/>
<rect id="Rectangle 3 Copy 69" x="96.7268" y="138.436" width="5.14481" height="5.09102" rx="2.54551" transform="rotate(90 96.7268 138.436)" fill="#12595C"/>
<rect id="Rectangle 3 Copy 27" x="50.9082" y="153.869" width="5.14481" height="5.0909" rx="2.54545" transform="rotate(90 50.9082 153.869)" fill="#12595C"/>
<rect id="Rectangle 3 Copy 70" x="96.7268" y="153.869" width="5.14481" height="5.09102" rx="2.54551" transform="rotate(90 96.7268 153.869)" fill="#12595C"/>
<rect id="Rectangle 3 Copy 26" x="50.9082" y="169.303" width="5.14481" height="5.0909" rx="2.54545" transform="rotate(90 50.9082 169.303)" fill="#12595C"/>
<rect id="Rectangle 3 Copy 71" x="96.7268" y="169.303" width="5.14481" height="5.09102" rx="2.54551" transform="rotate(90 96.7268 169.303)" fill="#12595C"/>
<rect id="Rectangle 3 Copy 25" x="50.9082" y="184.738" width="5.14481" height="5.0909" rx="2.54545" transform="rotate(90 50.9082 184.738)" fill="#12595C"/>
<rect id="Rectangle 3 Copy 72" x="96.7268" y="184.738" width="5.14481" height="5.09102" rx="2.54551" transform="rotate(90 96.7268 184.738)" fill="#12595C"/>
<rect id="Rectangle 3 Copy 24" x="50.9082" y="200.172" width="5.14481" height="5.0909" rx="2.54545" transform="rotate(90 50.9082 200.172)" fill="#12595C"/>
<rect id="Rectangle 3 Copy 73" x="96.7268" y="200.172" width="5.14481" height="5.09102" rx="2.54551" transform="rotate(90 96.7268 200.172)" fill="#12595C"/>
<rect id="Rectangle 3 Copy 23" x="50.9082" y="215.607" width="5.14481" height="5.0909" rx="2.54545" transform="rotate(90 50.9082 215.607)" fill="#12595C"/>
<rect id="Rectangle 3 Copy 74" x="96.7268" y="215.607" width="5.14481" height="5.09102" rx="2.54551" transform="rotate(90 96.7268 215.607)" fill="#12595C"/>
<rect id="Rectangle 3 Copy 22" x="50.9082" y="231.041" width="5.14481" height="5.0909" rx="2.54545" transform="rotate(90 50.9082 231.041)" fill="#12595C"/>
<rect id="Rectangle 3 Copy 75" x="96.7268" y="231.041" width="5.14481" height="5.09102" rx="2.54551" transform="rotate(90 96.7268 231.041)" fill="#12595C"/>
<rect id="Rectangle 3 Copy 39" x="35.6362" y="123" width="5.14481" height="5.09102" rx="2.54551" transform="rotate(90 35.6362 123)" fill="#12595C"/>
<rect id="Rectangle 3 Copy 76" x="81.4546" y="123" width="5.14481" height="5.09067" rx="2.54534" transform="rotate(90 81.4546 123)" fill="#12595C"/>
<rect id="Rectangle 3 Copy 38" x="35.636" y="138.436" width="5.14481" height="5.09102" rx="2.54551" transform="rotate(90 35.636 138.436)" fill="#12595C"/>
<rect id="Rectangle 3 Copy 77" x="81.4546" y="138.436" width="5.14481" height="5.09067" rx="2.54534" transform="rotate(90 81.4546 138.436)" fill="#12595C"/>
<rect id="Rectangle 3 Copy 37" x="35.636" y="153.869" width="5.14481" height="5.09102" rx="2.54551" transform="rotate(90 35.636 153.869)" fill="#12595C"/>
<rect id="Rectangle 3 Copy 78" x="81.4546" y="153.869" width="5.14481" height="5.09067" rx="2.54534" transform="rotate(90 81.4546 153.869)" fill="#12595C"/>
<rect id="Rectangle 3 Copy 36" x="35.636" y="169.303" width="5.14481" height="5.09102" rx="2.54551" transform="rotate(90 35.636 169.303)" fill="#12595C"/>
<rect id="Rectangle 3 Copy 79" x="81.4546" y="169.303" width="5.14481" height="5.09067" rx="2.54534" transform="rotate(90 81.4546 169.303)" fill="#12595C"/>
<rect id="Rectangle 3 Copy 35" x="35.636" y="184.738" width="5.14481" height="5.09102" rx="2.54551" transform="rotate(90 35.636 184.738)" fill="#12595C"/>
<rect id="Rectangle 3 Copy 80" x="81.4546" y="184.738" width="5.14481" height="5.09067" rx="2.54534" transform="rotate(90 81.4546 184.738)" fill="#12595C"/>
<rect id="Rectangle 3 Copy 34" x="35.636" y="200.172" width="5.14481" height="5.09102" rx="2.54551" transform="rotate(90 35.636 200.172)" fill="#12595C"/>
<rect id="Rectangle 3 Copy 81" x="81.4546" y="200.172" width="5.14481" height="5.09067" rx="2.54534" transform="rotate(90 81.4546 200.172)" fill="#12595C"/>
<rect id="Rectangle 3 Copy 33" x="35.636" y="215.607" width="5.14481" height="5.09102" rx="2.54551" transform="rotate(90 35.636 215.607)" fill="#12595C"/>
<rect id="Rectangle 3 Copy 82" x="81.4546" y="215.607" width="5.14481" height="5.09067" rx="2.54534" transform="rotate(90 81.4546 215.607)" fill="#12595C"/>
<rect id="Rectangle 3 Copy 32" x="35.636" y="231.041" width="5.14481" height="5.09102" rx="2.54551" transform="rotate(90 35.636 231.041)" fill="#12595C"/>
<rect id="Rectangle 3 Copy 83" x="81.4546" y="231.041" width="5.14481" height="5.09067" rx="2.54534" transform="rotate(90 81.4546 231.041)" fill="#12595C"/>
<rect id="Rectangle 3 Copy 49" x="20.3628" y="123" width="5.14481" height="5.09113" rx="2.54557" transform="rotate(90 20.3628 123)" fill="#12595C"/>
<rect id="Rectangle 3 Copy 48" x="20.3628" y="138.436" width="5.14481" height="5.09113" rx="2.54557" transform="rotate(90 20.3628 138.436)" fill="#12595C"/>
<rect id="Rectangle 3 Copy 47" x="20.3628" y="153.869" width="5.14481" height="5.09113" rx="2.54557" transform="rotate(90 20.3628 153.869)" fill="#12595C"/>
<rect id="Rectangle 3 Copy 46" x="20.3628" y="169.303" width="5.14481" height="5.09113" rx="2.54557" transform="rotate(90 20.3628 169.303)" fill="#12595C"/>
<rect id="Rectangle 3 Copy 45" x="20.3628" y="184.738" width="5.14481" height="5.09113" rx="2.54557" transform="rotate(90 20.3628 184.738)" fill="#12595C"/>
<rect id="Rectangle 3 Copy 44" x="20.3628" y="200.172" width="5.14481" height="5.09113" rx="2.54557" transform="rotate(90 20.3628 200.172)" fill="#12595C"/>
<rect id="Rectangle 3 Copy 43" x="20.3628" y="215.607" width="5.14481" height="5.09113" rx="2.54557" transform="rotate(90 20.3628 215.607)" fill="#12595C"/>
<rect id="Rectangle 3 Copy 42" x="20.3628" y="231.041" width="5.14481" height="5.09113" rx="2.54557" transform="rotate(90 20.3628 231.041)" fill="#12595C"/>
<rect id="Rectangle 3 Copy 59" x="5.09082" y="123" width="5.14481" height="5.09079" rx="2.54539" transform="rotate(90 5.09082 123)" fill="#12595C"/>
<rect id="Rectangle 3 Copy 58" x="5.09082" y="138.436" width="5.14481" height="5.09079" rx="2.54539" transform="rotate(90 5.09082 138.436)" fill="#12595C"/>
<rect id="Rectangle 3 Copy 57" x="5.09082" y="153.869" width="5.14481" height="5.09079" rx="2.54539" transform="rotate(90 5.09082 153.869)" fill="#12595C"/>
<rect id="Rectangle 3 Copy 56" x="5.09082" y="169.303" width="5.14481" height="5.09079" rx="2.54539" transform="rotate(90 5.09082 169.303)" fill="#12595C"/>
<rect id="Rectangle 3 Copy 55" x="5.09082" y="184.738" width="5.14481" height="5.09079" rx="2.54539" transform="rotate(90 5.09082 184.738)" fill="#12595C"/>
<rect id="Rectangle 3 Copy 54" x="5.09082" y="200.172" width="5.14481" height="5.09079" rx="2.54539" transform="rotate(90 5.09082 200.172)" fill="#12595C"/>
<rect id="Rectangle 3 Copy 53" x="5.09082" y="215.607" width="5.14481" height="5.09079" rx="2.54539" transform="rotate(90 5.09082 215.607)" fill="#12595C"/>
<rect id="Rectangle 3 Copy 52" x="5.09082" y="231.041" width="5.14481" height="5.09079" rx="2.54539" transform="rotate(90 5.09082 231.041)" fill="#12595C"/>
</g>
<g id="Titik-titik_2" opacity="0.2">
<rect id="Rectangle 3 Copy 19_2" x="66.1814" width="5.14481" height="5.09102" rx="2.54551" transform="rotate(90 66.1814 0)" fill="#12595C"/>
<rect id="Rectangle 3 Copy 60_2" x="112" width="5.14481" height="5.0909" rx="2.54545" transform="rotate(90 112 0)" fill="#12595C"/>
<rect id="Rectangle 3 Copy 18_2" x="66.1814" y="15.4355" width="5.14481" height="5.09102" rx="2.54551" transform="rotate(90 66.1814 15.4355)" fill="#12595C"/>
<rect id="Rectangle 3 Copy 61_2" x="112" y="15.4355" width="5.14481" height="5.0909" rx="2.54545" transform="rotate(90 112 15.4355)" fill="#12595C"/>
<rect id="Rectangle 3 Copy 17_2" x="66.1814" y="30.8691" width="5.14481" height="5.09102" rx="2.54551" transform="rotate(90 66.1814 30.8691)" fill="#12595C"/>
<rect id="Rectangle 3 Copy 62_2" x="112" y="30.8691" width="5.14481" height="5.0909" rx="2.54545" transform="rotate(90 112 30.8691)" fill="#12595C"/>
<rect id="Rectangle 3 Copy 16_2" x="66.1814" y="46.3027" width="5.14481" height="5.09102" rx="2.54551" transform="rotate(90 66.1814 46.3027)" fill="#12595C"/>
<rect id="Rectangle 3 Copy 63_2" x="112" y="46.3027" width="5.14481" height="5.0909" rx="2.54545" transform="rotate(90 112 46.3027)" fill="#12595C"/>
<rect id="Rectangle 3 Copy 15_2" x="66.1814" y="61.7383" width="5.14481" height="5.09102" rx="2.54551" transform="rotate(90 66.1814 61.7383)" fill="#12595C"/>
<rect id="Rectangle 3 Copy 64_2" x="112" y="61.7383" width="5.14481" height="5.0909" rx="2.54545" transform="rotate(90 112 61.7383)" fill="#12595C"/>
<rect id="Rectangle 3 Copy 14_2" x="66.1814" y="77.1719" width="5.14481" height="5.09102" rx="2.54551" transform="rotate(90 66.1814 77.1719)" fill="#12595C"/>
<rect id="Rectangle 3 Copy 65_2" x="112" y="77.1719" width="5.14481" height="5.0909" rx="2.54545" transform="rotate(90 112 77.1719)" fill="#12595C"/>
<rect id="Rectangle 3 Copy 13_2" x="66.1814" y="92.6074" width="5.14481" height="5.09102" rx="2.54551" transform="rotate(90 66.1814 92.6074)" fill="#12595C"/>
<rect id="Rectangle 3 Copy 66_2" x="112" y="92.6074" width="5.14481" height="5.0909" rx="2.54545" transform="rotate(90 112 92.6074)" fill="#12595C"/>
<rect id="Rectangle 3 Copy 12_2" x="66.1814" y="108.041" width="5.14481" height="5.09102" rx="2.54551" transform="rotate(90 66.1814 108.041)" fill="#12595C"/>
<rect id="Rectangle 3 Copy 67_2" x="112" y="108.041" width="5.14481" height="5.0909" rx="2.54545" transform="rotate(90 112 108.041)" fill="#12595C"/>
<rect id="Rectangle 3 Copy 29_2" x="50.9082" width="5.14481" height="5.0909" rx="2.54545" transform="rotate(90 50.9082 0)" fill="#12595C"/>
<rect id="Rectangle 3 Copy 68_2" x="96.7268" width="5.14481" height="5.09102" rx="2.54551" transform="rotate(90 96.7268 0)" fill="#12595C"/>
<rect id="Rectangle 3 Copy 28_2" x="50.9082" y="15.4355" width="5.14481" height="5.0909" rx="2.54545" transform="rotate(90 50.9082 15.4355)" fill="#12595C"/>
<rect id="Rectangle 3 Copy 69_2" x="96.7268" y="15.4355" width="5.14481" height="5.09102" rx="2.54551" transform="rotate(90 96.7268 15.4355)" fill="#12595C"/>
<rect id="Rectangle 3 Copy 27_2" x="50.9082" y="30.8691" width="5.14481" height="5.0909" rx="2.54545" transform="rotate(90 50.9082 30.8691)" fill="#12595C"/>
<rect id="Rectangle 3 Copy 70_2" x="96.7268" y="30.8691" width="5.14481" height="5.09102" rx="2.54551" transform="rotate(90 96.7268 30.8691)" fill="#12595C"/>
<rect id="Rectangle 3 Copy 26_2" x="50.9082" y="46.3027" width="5.14481" height="5.0909" rx="2.54545" transform="rotate(90 50.9082 46.3027)" fill="#12595C"/>
<rect id="Rectangle 3 Copy 71_2" x="96.7268" y="46.3027" width="5.14481" height="5.09102" rx="2.54551" transform="rotate(90 96.7268 46.3027)" fill="#12595C"/>
<rect id="Rectangle 3 Copy 25_2" x="50.9082" y="61.7383" width="5.14481" height="5.0909" rx="2.54545" transform="rotate(90 50.9082 61.7383)" fill="#12595C"/>
<rect id="Rectangle 3 Copy 72_2" x="96.7268" y="61.7383" width="5.14481" height="5.09102" rx="2.54551" transform="rotate(90 96.7268 61.7383)" fill="#12595C"/>
<rect id="Rectangle 3 Copy 24_2" x="50.9082" y="77.1719" width="5.14481" height="5.0909" rx="2.54545" transform="rotate(90 50.9082 77.1719)" fill="#12595C"/>
<rect id="Rectangle 3 Copy 73_2" x="96.7268" y="77.1719" width="5.14481" height="5.09102" rx="2.54551" transform="rotate(90 96.7268 77.1719)" fill="#12595C"/>
<rect id="Rectangle 3 Copy 23_2" x="50.9082" y="92.6074" width="5.14481" height="5.0909" rx="2.54545" transform="rotate(90 50.9082 92.6074)" fill="#12595C"/>
<rect id="Rectangle 3 Copy 74_2" x="96.7268" y="92.6074" width="5.14481" height="5.09102" rx="2.54551" transform="rotate(90 96.7268 92.6074)" fill="#12595C"/>
<rect id="Rectangle 3 Copy 22_2" x="50.9082" y="108.041" width="5.14481" height="5.0909" rx="2.54545" transform="rotate(90 50.9082 108.041)" fill="#12595C"/>
<rect id="Rectangle 3 Copy 75_2" x="96.7268" y="108.041" width="5.14481" height="5.09102" rx="2.54551" transform="rotate(90 96.7268 108.041)" fill="#12595C"/>
<rect id="Rectangle 3 Copy 39_2" x="35.6362" width="5.14481" height="5.09102" rx="2.54551" transform="rotate(90 35.6362 0)" fill="#12595C"/>
<rect id="Rectangle 3 Copy 76_2" x="81.4546" width="5.14481" height="5.09067" rx="2.54534" transform="rotate(90 81.4546 0)" fill="#12595C"/>
<rect id="Rectangle 3 Copy 38_2" x="35.636" y="15.4355" width="5.14481" height="5.09102" rx="2.54551" transform="rotate(90 35.636 15.4355)" fill="#12595C"/>
<rect id="Rectangle 3 Copy 77_2" x="81.4546" y="15.4355" width="5.14481" height="5.09067" rx="2.54534" transform="rotate(90 81.4546 15.4355)" fill="#12595C"/>
<rect id="Rectangle 3 Copy 37_2" x="35.636" y="30.8691" width="5.14481" height="5.09102" rx="2.54551" transform="rotate(90 35.636 30.8691)" fill="#12595C"/>
<rect id="Rectangle 3 Copy 78_2" x="81.4546" y="30.8691" width="5.14481" height="5.09067" rx="2.54534" transform="rotate(90 81.4546 30.8691)" fill="#12595C"/>
<rect id="Rectangle 3 Copy 36_2" x="35.636" y="46.3027" width="5.14481" height="5.09102" rx="2.54551" transform="rotate(90 35.636 46.3027)" fill="#12595C"/>
<rect id="Rectangle 3 Copy 79_2" x="81.4546" y="46.3027" width="5.14481" height="5.09067" rx="2.54534" transform="rotate(90 81.4546 46.3027)" fill="#12595C"/>
<rect id="Rectangle 3 Copy 35_2" x="35.636" y="61.7383" width="5.14481" height="5.09102" rx="2.54551" transform="rotate(90 35.636 61.7383)" fill="#12595C"/>
<rect id="Rectangle 3 Copy 80_2" x="81.4546" y="61.7383" width="5.14481" height="5.09067" rx="2.54534" transform="rotate(90 81.4546 61.7383)" fill="#12595C"/>
<rect id="Rectangle 3 Copy 34_2" x="35.636" y="77.1719" width="5.14481" height="5.09102" rx="2.54551" transform="rotate(90 35.636 77.1719)" fill="#12595C"/>
<rect id="Rectangle 3 Copy 81_2" x="81.4546" y="77.1719" width="5.14481" height="5.09067" rx="2.54534" transform="rotate(90 81.4546 77.1719)" fill="#12595C"/>
<rect id="Rectangle 3 Copy 33_2" x="35.636" y="92.6074" width="5.14481" height="5.09102" rx="2.54551" transform="rotate(90 35.636 92.6074)" fill="#12595C"/>
<rect id="Rectangle 3 Copy 82_2" x="81.4546" y="92.6074" width="5.14481" height="5.09067" rx="2.54534" transform="rotate(90 81.4546 92.6074)" fill="#12595C"/>
<rect id="Rectangle 3 Copy 32_2" x="35.636" y="108.041" width="5.14481" height="5.09102" rx="2.54551" transform="rotate(90 35.636 108.041)" fill="#12595C"/>
<rect id="Rectangle 3 Copy 83_2" x="81.4546" y="108.041" width="5.14481" height="5.09067" rx="2.54534" transform="rotate(90 81.4546 108.041)" fill="#12595C"/>
<rect id="Rectangle 3 Copy 49_2" x="20.3628" width="5.14481" height="5.09113" rx="2.54557" transform="rotate(90 20.3628 0)" fill="#12595C"/>
<rect id="Rectangle 3 Copy 48_2" x="20.3628" y="15.4355" width="5.14481" height="5.09113" rx="2.54557" transform="rotate(90 20.3628 15.4355)" fill="#12595C"/>
<rect id="Rectangle 3 Copy 47_2" x="20.3628" y="30.8691" width="5.14481" height="5.09113" rx="2.54557" transform="rotate(90 20.3628 30.8691)" fill="#12595C"/>
<rect id="Rectangle 3 Copy 46_2" x="20.3628" y="46.3027" width="5.14481" height="5.09113" rx="2.54557" transform="rotate(90 20.3628 46.3027)" fill="#12595C"/>
<rect id="Rectangle 3 Copy 45_2" x="20.3628" y="61.7383" width="5.14481" height="5.09113" rx="2.54557" transform="rotate(90 20.3628 61.7383)" fill="#12595C"/>
<rect id="Rectangle 3 Copy 44_2" x="20.3628" y="77.1719" width="5.14481" height="5.09113" rx="2.54557" transform="rotate(90 20.3628 77.1719)" fill="#12595C"/>
<rect id="Rectangle 3 Copy 43_2" x="20.3628" y="92.6074" width="5.14481" height="5.09113" rx="2.54557" transform="rotate(90 20.3628 92.6074)" fill="#12595C"/>
<rect id="Rectangle 3 Copy 42_2" x="20.3628" y="108.041" width="5.14481" height="5.09113" rx="2.54557" transform="rotate(90 20.3628 108.041)" fill="#12595C"/>
<rect id="Rectangle 3 Copy 59_2" x="5.09082" width="5.14481" height="5.09079" rx="2.54539" transform="rotate(90 5.09082 0)" fill="#12595C"/>
<rect id="Rectangle 3 Copy 58_2" x="5.09082" y="15.4355" width="5.14481" height="5.09079" rx="2.54539" transform="rotate(90 5.09082 15.4355)" fill="#12595C"/>
<rect id="Rectangle 3 Copy 57_2" x="5.09082" y="30.8691" width="5.14481" height="5.09079" rx="2.54539" transform="rotate(90 5.09082 30.8691)" fill="#12595C"/>
<rect id="Rectangle 3 Copy 56_2" x="5.09082" y="46.3027" width="5.14481" height="5.09079" rx="2.54539" transform="rotate(90 5.09082 46.3027)" fill="#12595C"/>
<rect id="Rectangle 3 Copy 55_2" x="5.09082" y="61.7383" width="5.14481" height="5.09079" rx="2.54539" transform="rotate(90 5.09082 61.7383)" fill="#12595C"/>
<rect id="Rectangle 3 Copy 54_2" x="5.09082" y="77.1719" width="5.14481" height="5.09079" rx="2.54539" transform="rotate(90 5.09082 77.1719)" fill="#12595C"/>
<rect id="Rectangle 3 Copy 53_2" x="5.09082" y="92.6074" width="5.14481" height="5.09079" rx="2.54539" transform="rotate(90 5.09082 92.6074)" fill="#12595C"/>
<rect id="Rectangle 3 Copy 52_2" x="5.09082" y="108.041" width="5.14481" height="5.09079" rx="2.54539" transform="rotate(90 5.09082 108.041)" fill="#12595C"/>
</g>
</g>
</svg>
