<svg width="61" height="50" viewBox="0 0 61 50" fill="none" xmlns="http://www.w3.org/2000/svg">
<g id="Group 2592">
<rect id="Rectangle 101" width="2.75193" height="11.2673" rx="1.37596" transform="matrix(0.964401 -0.264446 -0.253296 -0.967389 17.2856 14.1699)" fill="black"/>
<rect id="Rectangle 102" width="2.81681" height="11.0077" rx="1.40841" transform="matrix(0.253298 0.967388 0.964401 -0.264443 11.7915 8.52539)" fill="black"/>
<path id="Ellipse 58" d="M56.8932 8.07842C58.1661 7.72942 58.9694 6.3645 58.6077 4.98306C58.246 3.60162 56.8833 2.83061 55.6105 3.17961C54.3377 3.52862 53.5343 4.89353 53.8961 6.27497C54.2578 7.65641 55.6204 8.42743 56.8932 8.07842Z" stroke="#373F41" stroke-width="2.68228"/>
<path id="Ellipse 59" d="M5.38932 47.5823C6.66215 47.2333 7.46549 45.8684 7.10377 44.487C6.74205 43.1055 5.37943 42.3345 4.1066 42.6835C2.83377 43.0325 2.03043 44.3974 2.39215 45.7789C2.75387 47.1603 4.1165 47.9313 5.38932 47.5823Z" stroke="#373F41" stroke-width="2.68228"/>
</g>
</svg>
