<svg width="165" height="112" viewBox="0 0 165 112" fill="none" xmlns="http://www.w3.org/2000/svg">
<g id="Group 33827">
<g id="Titik-titik" opacity="0.2">
<rect id="Rectangle 3 Copy 19" x="51" y="45.8184" width="5.14481" height="5.09102" rx="2.54551" fill="#12595C"/>
<rect id="Rectangle 3 Copy 60" x="51" width="5.14481" height="5.0909" rx="2.54545" fill="#12595C"/>
<rect id="Rectangle 3 Copy 18" x="66.4346" y="45.8184" width="5.14481" height="5.09102" rx="2.54551" fill="#12595C"/>
<rect id="Rectangle 3 Copy 61" x="66.4346" width="5.14481" height="5.0909" rx="2.54545" fill="#12595C"/>
<rect id="Rectangle 3 Copy 17" x="81.8696" y="45.8184" width="5.14481" height="5.09102" rx="2.54551" fill="#12595C"/>
<rect id="Rectangle 3 Copy 62" x="81.8682" width="5.14481" height="5.0909" rx="2.54545" fill="#12595C"/>
<rect id="Rectangle 3 Copy 16" x="97.3037" y="45.8184" width="5.14481" height="5.09102" rx="2.54551" fill="#12595C"/>
<rect id="Rectangle 3 Copy 63" x="97.3037" width="5.14481" height="5.0909" rx="2.54545" fill="#12595C"/>
<rect id="Rectangle 3 Copy 15" x="112.738" y="45.8184" width="5.14481" height="5.09102" rx="2.54551" fill="#12595C"/>
<rect id="Rectangle 3 Copy 64" x="112.738" width="5.14481" height="5.0909" rx="2.54545" fill="#12595C"/>
<rect id="Rectangle 3 Copy 14" x="128.172" y="45.8184" width="5.14481" height="5.09102" rx="2.54551" fill="#12595C"/>
<rect id="Rectangle 3 Copy 65" x="128.172" width="5.14481" height="5.0909" rx="2.54545" fill="#12595C"/>
<rect id="Rectangle 3 Copy 13" x="143.606" y="45.8184" width="5.14481" height="5.09102" rx="2.54551" fill="#12595C"/>
<rect id="Rectangle 3 Copy 66" x="143.606" width="5.14481" height="5.0909" rx="2.54545" fill="#12595C"/>
<rect id="Rectangle 3 Copy 12" x="159.041" y="45.8184" width="5.14481" height="5.09102" rx="2.54551" fill="#12595C"/>
<rect id="Rectangle 3 Copy 67" x="159.041" width="5.14481" height="5.0909" rx="2.54545" fill="#12595C"/>
<rect id="Rectangle 3 Copy 29" x="51" y="61.0918" width="5.14481" height="5.0909" rx="2.54545" fill="#12595C"/>
<rect id="Rectangle 3 Copy 68" x="51" y="15.2734" width="5.14481" height="5.09102" rx="2.54551" fill="#12595C"/>
<rect id="Rectangle 3 Copy 28" x="66.4346" y="61.0918" width="5.14481" height="5.0909" rx="2.54545" fill="#12595C"/>
<rect id="Rectangle 3 Copy 69" x="66.4346" y="15.2734" width="5.14481" height="5.09102" rx="2.54551" fill="#12595C"/>
<rect id="Rectangle 3 Copy 27" x="81.8696" y="61.0918" width="5.14481" height="5.0909" rx="2.54545" fill="#12595C"/>
<rect id="Rectangle 3 Copy 70" x="81.8696" y="15.2734" width="5.14481" height="5.09102" rx="2.54551" fill="#12595C"/>
<rect id="Rectangle 3 Copy 26" x="97.3037" y="61.0918" width="5.14481" height="5.0909" rx="2.54545" fill="#12595C"/>
<rect id="Rectangle 3 Copy 71" x="97.3037" y="15.2734" width="5.14481" height="5.09102" rx="2.54551" fill="#12595C"/>
<rect id="Rectangle 3 Copy 25" x="112.738" y="61.0918" width="5.14481" height="5.0909" rx="2.54545" fill="#12595C"/>
<rect id="Rectangle 3 Copy 72" x="112.738" y="15.2734" width="5.14481" height="5.09102" rx="2.54551" fill="#12595C"/>
<rect id="Rectangle 3 Copy 24" x="128.172" y="61.0918" width="5.14481" height="5.0909" rx="2.54545" fill="#12595C"/>
<rect id="Rectangle 3 Copy 73" x="128.172" y="15.2734" width="5.14481" height="5.09102" rx="2.54551" fill="#12595C"/>
<rect id="Rectangle 3 Copy 23" x="143.606" y="61.0918" width="5.14481" height="5.0909" rx="2.54545" fill="#12595C"/>
<rect id="Rectangle 3 Copy 74" x="143.606" y="15.2734" width="5.14481" height="5.09102" rx="2.54551" fill="#12595C"/>
<rect id="Rectangle 3 Copy 22" x="159.041" y="61.0918" width="5.14481" height="5.0909" rx="2.54545" fill="#12595C"/>
<rect id="Rectangle 3 Copy 75" x="159.041" y="15.2734" width="5.14481" height="5.09102" rx="2.54551" fill="#12595C"/>
<rect id="Rectangle 3 Copy 39" x="51" y="76.3633" width="5.14481" height="5.09102" rx="2.54551" fill="#12595C"/>
<rect id="Rectangle 3 Copy 76" x="51" y="30.5449" width="5.14481" height="5.09067" rx="2.54534" fill="#12595C"/>
<rect id="Rectangle 3 Copy 38" x="66.4346" y="76.3633" width="5.14481" height="5.09102" rx="2.54551" fill="#12595C"/>
<rect id="Rectangle 3 Copy 77" x="66.4346" y="30.5449" width="5.14481" height="5.09067" rx="2.54534" fill="#12595C"/>
<rect id="Rectangle 3 Copy 37" x="81.8696" y="76.3633" width="5.14481" height="5.09102" rx="2.54551" fill="#12595C"/>
<rect id="Rectangle 3 Copy 78" x="81.8696" y="30.5449" width="5.14481" height="5.09067" rx="2.54534" fill="#12595C"/>
<rect id="Rectangle 3 Copy 36" x="97.3037" y="76.3633" width="5.14481" height="5.09102" rx="2.54551" fill="#12595C"/>
<rect id="Rectangle 3 Copy 79" x="97.3037" y="30.5449" width="5.14481" height="5.09067" rx="2.54534" fill="#12595C"/>
<rect id="Rectangle 3 Copy 35" x="112.738" y="76.3633" width="5.14481" height="5.09102" rx="2.54551" fill="#12595C"/>
<rect id="Rectangle 3 Copy 80" x="112.738" y="30.5449" width="5.14481" height="5.09067" rx="2.54534" fill="#12595C"/>
<rect id="Rectangle 3 Copy 34" x="128.172" y="76.3633" width="5.14481" height="5.09102" rx="2.54551" fill="#12595C"/>
<rect id="Rectangle 3 Copy 81" x="128.172" y="30.5449" width="5.14481" height="5.09067" rx="2.54534" fill="#12595C"/>
<rect id="Rectangle 3 Copy 33" x="143.606" y="76.3633" width="5.14481" height="5.09102" rx="2.54551" fill="#12595C"/>
<rect id="Rectangle 3 Copy 82" x="143.606" y="30.5449" width="5.14481" height="5.09067" rx="2.54534" fill="#12595C"/>
<rect id="Rectangle 3 Copy 32" x="159.041" y="76.3633" width="5.14481" height="5.09102" rx="2.54551" fill="#12595C"/>
<rect id="Rectangle 3 Copy 83" x="159.041" y="30.5449" width="5.14481" height="5.09067" rx="2.54534" fill="#12595C"/>
<rect id="Rectangle 3 Copy 49" x="51" y="91.6367" width="5.14481" height="5.09113" rx="2.54557" fill="#12595C"/>
<rect id="Rectangle 3 Copy 48" x="66.4346" y="91.6367" width="5.14481" height="5.09113" rx="2.54557" fill="#12595C"/>
<rect id="Rectangle 3 Copy 47" x="81.8696" y="91.6367" width="5.14481" height="5.09113" rx="2.54557" fill="#12595C"/>
<rect id="Rectangle 3 Copy 46" x="97.3037" y="91.6367" width="5.14481" height="5.09113" rx="2.54557" fill="#12595C"/>
<rect id="Rectangle 3 Copy 45" x="112.738" y="91.6367" width="5.14481" height="5.09113" rx="2.54557" fill="#12595C"/>
<rect id="Rectangle 3 Copy 44" x="128.172" y="91.6367" width="5.14481" height="5.09113" rx="2.54557" fill="#12595C"/>
<rect id="Rectangle 3 Copy 43" x="143.606" y="91.6367" width="5.14481" height="5.09113" rx="2.54557" fill="#12595C"/>
<rect id="Rectangle 3 Copy 42" x="159.041" y="91.6367" width="5.14481" height="5.09113" rx="2.54557" fill="#12595C"/>
<rect id="Rectangle 3 Copy 59" x="51" y="106.91" width="5.14481" height="5.09079" rx="2.54539" fill="#12595C"/>
<rect id="Rectangle 3 Copy 58" x="66.4346" y="106.91" width="5.14481" height="5.09079" rx="2.54539" fill="#12595C"/>
<rect id="Rectangle 3 Copy 57" x="81.8696" y="106.91" width="5.14481" height="5.09079" rx="2.54539" fill="#12595C"/>
<rect id="Rectangle 3 Copy 56" x="97.3037" y="106.91" width="5.14481" height="5.09079" rx="2.54539" fill="#12595C"/>
<rect id="Rectangle 3 Copy 55" x="112.738" y="106.91" width="5.14481" height="5.09079" rx="2.54539" fill="#12595C"/>
<rect id="Rectangle 3 Copy 54" x="128.172" y="106.91" width="5.14481" height="5.09079" rx="2.54539" fill="#12595C"/>
<rect id="Rectangle 3 Copy 53" x="143.606" y="106.91" width="5.14481" height="5.09079" rx="2.54539" fill="#12595C"/>
<rect id="Rectangle 3 Copy 52" x="159.041" y="106.91" width="5.14481" height="5.09079" rx="2.54539" fill="#12595C"/>
</g>
<g id="Titik-titik_2" opacity="0.2">
<rect id="Rectangle 3 Copy 14_2" x="5.17236" y="45.8184" width="5.14481" height="5.09102" rx="2.54551" fill="#12595C"/>
<rect id="Rectangle 3 Copy 65_2" x="5.17236" width="5.14481" height="5.0909" rx="2.54545" fill="#12595C"/>
<rect id="Rectangle 3 Copy 13_2" x="20.6064" y="45.8184" width="5.14481" height="5.09102" rx="2.54551" fill="#12595C"/>
<rect id="Rectangle 3 Copy 66_2" x="20.6064" width="5.14481" height="5.0909" rx="2.54545" fill="#12595C"/>
<rect id="Rectangle 3 Copy 12_2" x="36.041" y="45.8184" width="5.14481" height="5.09102" rx="2.54551" fill="#12595C"/>
<rect id="Rectangle 3 Copy 67_2" x="36.041" width="5.14481" height="5.0909" rx="2.54545" fill="#12595C"/>
<rect id="Rectangle 3 Copy 24_2" x="5.17236" y="61.0918" width="5.14481" height="5.0909" rx="2.54545" fill="#12595C"/>
<rect id="Rectangle 3 Copy 73_2" x="5.17236" y="15.2734" width="5.14481" height="5.09102" rx="2.54551" fill="#12595C"/>
<rect id="Rectangle 3 Copy 23_2" x="20.6064" y="61.0918" width="5.14481" height="5.0909" rx="2.54545" fill="#12595C"/>
<rect id="Rectangle 3 Copy 74_2" x="20.6064" y="15.2734" width="5.14481" height="5.09102" rx="2.54551" fill="#12595C"/>
<rect id="Rectangle 3 Copy 22_2" x="36.041" y="61.0918" width="5.14481" height="5.0909" rx="2.54545" fill="#12595C"/>
<rect id="Rectangle 3 Copy 75_2" x="36.041" y="15.2734" width="5.14481" height="5.09102" rx="2.54551" fill="#12595C"/>
<rect id="Rectangle 3 Copy 34_2" x="5.17236" y="76.3633" width="5.14481" height="5.09102" rx="2.54551" fill="#12595C"/>
<rect id="Rectangle 3 Copy 81_2" x="5.17236" y="30.5449" width="5.14481" height="5.09067" rx="2.54534" fill="#12595C"/>
<rect id="Rectangle 3 Copy 33_2" x="20.6064" y="76.3633" width="5.14481" height="5.09102" rx="2.54551" fill="#12595C"/>
<rect id="Rectangle 3 Copy 82_2" x="20.6064" y="30.5449" width="5.14481" height="5.09067" rx="2.54534" fill="#12595C"/>
<rect id="Rectangle 3 Copy 32_2" x="36.041" y="76.3633" width="5.14481" height="5.09102" rx="2.54551" fill="#12595C"/>
<rect id="Rectangle 3 Copy 83_2" x="36.041" y="30.5449" width="5.14481" height="5.09067" rx="2.54534" fill="#12595C"/>
<rect id="Rectangle 3 Copy 44_2" x="5.17236" y="91.6367" width="5.14481" height="5.09113" rx="2.54557" fill="#12595C"/>
<rect id="Rectangle 3 Copy 43_2" x="20.6064" y="91.6367" width="5.14481" height="5.09113" rx="2.54557" fill="#12595C"/>
<rect id="Rectangle 3 Copy 42_2" x="36.041" y="91.6367" width="5.14481" height="5.09113" rx="2.54557" fill="#12595C"/>
<rect id="Rectangle 3 Copy 54_2" x="5.17236" y="106.91" width="5.14481" height="5.09079" rx="2.54539" fill="#12595C"/>
<rect id="Rectangle 3 Copy 53_2" x="20.6064" y="106.91" width="5.14481" height="5.09079" rx="2.54539" fill="#12595C"/>
<rect id="Rectangle 3 Copy 52_2" x="36.041" y="106.91" width="5.14481" height="5.09079" rx="2.54539" fill="#12595C"/>
</g>
</g>
</svg>
