<svg width="204" height="297" viewBox="0 0 204 297" fill="none" xmlns="http://www.w3.org/2000/svg">
<path d="M164.608 2.67323C165.156 2.73208 165.648 2.3365 165.708 1.78908C169.895 2.267 174.022 2.91624 178.084 3.72914C177.974 4.26878 178.321 4.79611 178.861 4.90792C180.435 5.23402 181.999 5.58492 183.553 5.96017C184.089 6.08955 184.628 5.76108 184.759 5.22615C188.841 6.24111 192.849 7.42309 196.779 8.76389C196.599 9.28448 196.874 9.85271 197.395 10.0342C198.913 10.5639 200.419 11.1175 201.913 11.6945C202.427 11.8931 203.005 11.6382 203.205 11.1251C207.11 12.6641 210.929 14.3626 214.654 16.2119C214.407 16.7043 214.606 17.3038 215.098 17.5522C216.531 18.2759 217.95 19.0221 219.355 19.7903C219.838 20.0548 220.444 19.8781 220.71 19.3958C224.373 21.4315 227.936 23.6168 231.393 25.9425C231.084 26.3984 231.201 27.0187 231.657 27.3295C232.982 28.2345 234.292 29.1604 235.585 30.1068C236.029 30.4323 236.653 30.3365 236.98 29.8932C240.34 32.3876 243.588 35.0194 246.716 37.7797C246.35 38.1914 246.386 38.8217 246.796 39.1892C247.993 40.2592 249.171 41.3482 250.33 42.4557C250.729 42.8364 251.36 42.8227 251.742 42.4257C254.745 45.3331 257.623 48.3646 260.369 51.511C259.953 51.8717 259.906 52.5014 260.266 52.9191C261.312 54.1347 262.339 55.3672 263.345 56.6161C263.691 57.0453 264.319 57.1136 264.749 56.7695C267.347 60.0387 269.808 63.4178 272.124 66.8975C271.665 67.2011 271.537 67.8195 271.839 68.2803C272.719 69.6211 273.577 70.9766 274.413 72.3465C274.7 72.8169 275.314 72.9662 275.785 72.6808C277.934 76.256 279.935 79.9261 281.781 83.682C281.285 83.9232 281.078 84.5197 281.318 85.016C282.015 86.4588 282.689 87.9141 283.339 89.3815C283.563 89.8854 284.151 90.1134 284.656 89.8919C286.318 93.712 287.823 97.6117 289.163 101.582C288.64 101.756 288.357 102.321 288.529 102.844C289.031 104.364 289.508 105.895 289.961 107.436C290.116 107.964 290.67 108.268 291.199 108.114C292.344 112.113 293.324 116.176 294.131 120.294C293.59 120.398 293.235 120.92 293.338 121.462C293.635 123.035 293.907 124.617 294.153 126.206C294.238 126.751 294.747 127.124 295.291 127.042C295.9 131.149 296.337 135.305 296.597 139.503C296.047 139.535 295.627 140.006 295.657 140.556C295.745 142.152 295.808 143.754 295.844 145.361C295.856 145.912 296.312 146.349 296.862 146.339C296.927 150.48 296.82 154.657 296.533 158.861C295.983 158.822 295.505 159.234 295.464 159.784C295.404 160.585 295.337 161.388 295.264 162.191C295.191 162.994 295.111 163.795 295.025 164.594C294.966 165.143 295.362 165.635 295.909 165.695C295.432 169.882 294.782 174.009 293.969 178.071C293.43 177.961 292.902 178.308 292.791 178.848C292.464 180.422 292.114 181.986 291.738 183.54C291.609 184.076 291.937 184.615 292.472 184.746C291.457 188.827 290.275 192.836 288.935 196.766C288.414 196.586 287.846 196.861 287.664 197.382C287.135 198.9 286.581 200.406 286.004 201.9C285.805 202.414 286.06 202.992 286.573 203.192C285.034 207.097 283.336 210.915 281.487 214.641C280.994 214.394 280.395 214.592 280.146 215.084C279.423 216.517 278.676 217.937 277.908 219.341C277.644 219.825 277.82 220.431 278.303 220.697C276.267 224.36 274.082 227.923 271.756 231.379C271.3 231.07 270.68 231.188 270.369 231.643C269.464 232.969 268.538 234.278 267.592 235.571C267.266 236.016 267.362 236.64 267.805 236.967C265.311 240.327 262.679 243.575 259.919 246.702C259.507 246.337 258.877 246.372 258.509 246.783C257.439 247.979 256.35 249.157 255.243 250.317C254.862 250.715 254.876 251.347 255.273 251.728C252.365 254.732 249.334 257.61 246.187 260.356C245.827 259.939 245.197 259.893 244.779 260.253C243.564 261.299 242.331 262.326 241.082 263.332C240.653 263.678 240.585 264.305 240.929 264.735C237.66 267.333 234.281 269.795 230.801 272.111C230.497 271.651 229.879 271.524 229.418 271.826C228.077 272.706 226.722 273.564 225.352 274.4C224.882 274.687 224.732 275.3 225.018 275.771C221.442 277.92 217.772 279.922 214.016 281.767C213.775 281.272 213.179 281.065 212.683 281.305C211.24 282.002 209.784 282.676 208.317 283.326C207.813 283.549 207.585 284.138 207.807 284.642C203.987 286.305 200.087 287.809 196.116 289.149C195.942 288.627 195.378 288.343 194.854 288.516C193.334 289.018 191.803 289.495 190.263 289.947C189.734 290.103 189.431 290.657 189.584 291.186C185.586 292.331 181.523 293.311 177.404 294.118C177.3 293.577 176.778 293.222 176.237 293.324C174.663 293.622 173.082 293.894 171.492 294.14C170.948 294.225 170.574 294.734 170.657 295.278C166.55 295.886 162.393 296.324 158.196 296.584C158.164 296.034 157.693 295.614 157.142 295.644C155.546 295.732 153.945 295.794 152.337 295.83C151.786 295.843 151.349 296.299 151.36 296.849C147.218 296.914 143.042 296.806 138.838 296.519C138.877 295.97 138.464 295.492 137.915 295.451C137.113 295.391 136.311 295.324 135.508 295.251C134.704 295.177 133.903 295.098 133.104 295.012C132.556 294.953 132.064 295.349 132.003 295.896C127.817 295.418 123.689 294.769 119.628 293.956C119.738 293.416 119.39 292.889 118.851 292.777C117.276 292.451 115.712 292.1 114.159 291.725C113.623 291.596 113.084 291.924 112.953 292.459C108.871 291.444 104.862 290.262 100.933 288.921C101.113 288.401 100.837 287.833 100.317 287.651C98.7986 287.121 97.2924 286.568 95.7986 285.991C95.2845 285.792 94.7068 286.047 94.5067 286.56C90.602 285.021 86.7832 283.323 83.0577 281.473C83.3043 280.981 83.1062 280.381 82.6142 280.133C81.181 279.409 79.7619 278.663 78.3572 277.895C77.8737 277.63 77.2675 277.807 77.0017 278.289C73.3389 276.254 69.7756 274.068 66.3191 271.743C66.6282 271.287 66.5104 270.667 66.0552 270.356C64.7297 269.451 63.4202 268.525 62.1272 267.578C61.6824 267.253 61.0583 267.349 60.7316 267.792C57.3714 265.298 54.1237 262.666 50.9961 259.906C51.3619 259.494 51.3261 258.864 50.9153 258.496C49.7193 257.426 48.5412 256.337 47.3816 255.229C46.983 254.849 46.3518 254.863 45.9701 255.26C42.9667 252.352 40.0884 249.321 37.3429 246.174C37.7591 245.814 37.8054 245.184 37.4458 244.766C36.3994 243.551 35.3729 242.318 34.3666 241.069C34.0208 240.64 33.3931 240.572 32.9631 240.916C30.365 237.646 27.904 234.267 25.5877 230.788C26.0472 230.484 26.1748 229.866 25.8725 229.405C24.993 228.064 24.1349 226.709 23.2989 225.339C23.0117 224.868 22.3983 224.719 21.9272 225.004C19.7781 221.429 17.7769 217.759 15.9313 214.003C16.4264 213.762 16.6335 213.166 16.3937 212.669C15.6968 211.226 15.0229 209.771 14.3725 208.304C14.1492 207.8 13.5604 207.572 13.0562 207.793C11.3938 203.973 9.88901 200.074 8.54921 196.103C9.07165 195.929 9.35503 195.365 9.18239 194.841C8.68082 193.321 8.20357 191.79 7.75105 190.25C7.59572 189.721 7.04187 189.418 6.51299 189.571C5.36789 185.573 4.38801 181.51 3.58055 177.391C4.12135 177.287 4.47646 176.765 4.37412 176.223C4.07676 174.65 3.80471 173.068 3.55835 171.479C3.47394 170.935 2.96485 170.561 2.42035 170.644C1.81226 166.537 1.37473 162.38 1.11458 158.182C1.66439 158.15 2.08495 157.679 2.05459 157.129C1.96649 155.533 1.90425 153.931 1.8682 152.324C1.85584 151.773 1.4 151.336 0.849377 151.347C0.784386 147.205 0.89223 143.028 1.17929 138.824C1.72864 138.864 2.20669 138.451 2.24792 137.902C2.30799 137.1 2.37462 136.298 2.44787 135.494C2.52111 134.691 2.60068 133.89 2.68653 133.091C2.74538 132.543 2.3498 132.051 1.80238 131.99C2.2803 127.803 2.92954 123.676 3.74244 119.615C4.28208 119.724 4.80941 119.377 4.92122 118.837C5.24732 117.263 5.59822 115.699 5.97347 114.145C6.10285 113.61 5.77438 113.07 5.23946 112.939C6.25441 108.858 7.43639 104.849 8.77719 100.92C9.29779 101.099 9.86601 100.824 10.0475 100.304C10.5772 98.7854 11.1308 97.2791 11.7078 95.7854C11.9064 95.2713 11.6515 94.6936 11.1384 94.4935C12.6774 90.5887 14.3759 86.77 16.2252 83.0445C16.7176 83.2911 17.3171 83.093 17.5655 82.601C18.2891 81.1678 19.0353 79.7486 19.8036 78.344C20.0681 77.8605 19.8913 77.2543 19.4091 76.9885C21.4448 73.3257 23.63 69.7624 25.9558 66.3059C26.4117 66.6149 27.032 66.4972 27.3427 66.042C28.2478 64.7164 29.1737 63.4069 30.1201 62.1139C30.4456 61.6692 30.3498 61.0451 29.9064 60.7184C32.4009 57.3581 35.0327 54.1104 37.793 50.9828C38.2046 51.3487 38.835 51.3128 39.2025 50.9021C40.2725 49.706 41.3615 48.528 42.469 47.3684C42.8497 46.9698 42.836 46.3385 42.439 45.9568C45.3464 42.9534 48.3779 40.0751 51.5243 37.3296C51.885 37.7458 52.5147 37.7921 52.9324 37.4325C54.148 36.3862 55.3805 35.3596 56.6294 34.3533C57.0586 34.0075 57.1269 33.3798 56.7828 32.9498C60.052 30.3518 63.4311 27.8908 66.9108 25.5745C67.2144 26.034 67.8327 26.1616 68.2936 25.8593C69.6344 24.9797 70.9899 24.1217 72.3597 23.2856C72.8302 22.9985 72.9795 22.385 72.6941 21.914C76.2693 19.7648 79.9394 17.7636 83.6953 15.918C83.9365 16.4131 84.5329 16.6202 85.0292 16.3804C86.472 15.6835 87.9274 15.0097 89.3948 14.3593C89.8986 14.1359 90.1266 13.5472 89.9051 13.0429C93.7252 11.3806 97.6249 9.87578 101.595 8.53595C101.77 9.05836 102.334 9.34177 102.857 9.1691C104.378 8.66753 105.908 8.19028 107.449 7.73776C107.978 7.58243 108.281 7.02864 108.127 6.49973C112.126 5.35463 116.189 4.37472 120.308 3.56726C120.412 4.10806 120.934 4.4632 121.475 4.36082C123.049 4.06346 124.63 3.79141 126.219 3.54509C126.764 3.46065 127.137 2.95156 127.055 2.40705C131.162 1.79896 135.318 1.36144 139.516 1.10128C139.548 1.65109 140.019 2.07165 140.569 2.04129C142.165 1.95323 143.767 1.89095 145.374 1.85491C145.926 1.84254 146.362 1.38671 146.352 0.836079C150.494 0.771088 154.67 0.878931 158.874 1.16599C158.835 1.71534 159.247 2.19339 159.797 2.23462C160.598 2.29469 161.401 2.36132 162.204 2.43457C163.007 2.50781 163.809 2.58739 164.608 2.67323Z" stroke="#D0DEDE" stroke-width="2" stroke-linecap="round" stroke-dasharray="5 15"/>
</svg>
