<svg width="238" height="113" viewBox="0 0 238 113" fill="none" xmlns="http://www.w3.org/2000/svg">
<g id="Group 33828">
<g id="Titik-titik" opacity="0.2">
<rect id="Rectangle 3 Copy 19" x="123.907" y="46.623" width="5.14481" height="5.09102" rx="2.54551" fill="#12595C"/>
<rect id="Rectangle 3 Copy 60" x="123.907" y="0.804688" width="5.14481" height="5.0909" rx="2.54545" fill="#12595C"/>
<rect id="Rectangle 3 Copy 18" x="139.342" y="46.623" width="5.14481" height="5.09102" rx="2.54551" fill="#12595C"/>
<rect id="Rectangle 3 Copy 61" x="139.342" y="0.804688" width="5.14481" height="5.0909" rx="2.54545" fill="#12595C"/>
<rect id="Rectangle 3 Copy 17" x="154.776" y="46.623" width="5.14481" height="5.09102" rx="2.54551" fill="#12595C"/>
<rect id="Rectangle 3 Copy 62" x="154.775" y="0.804688" width="5.14481" height="5.0909" rx="2.54545" fill="#12595C"/>
<rect id="Rectangle 3 Copy 16" x="170.21" y="46.623" width="5.14481" height="5.09102" rx="2.54551" fill="#12595C"/>
<rect id="Rectangle 3 Copy 63" x="170.21" y="0.804688" width="5.14481" height="5.0909" rx="2.54545" fill="#12595C"/>
<rect id="Rectangle 3 Copy 15" x="185.645" y="46.623" width="5.14481" height="5.09102" rx="2.54551" fill="#12595C"/>
<rect id="Rectangle 3 Copy 64" x="185.645" y="0.804688" width="5.14481" height="5.0909" rx="2.54545" fill="#12595C"/>
<rect id="Rectangle 3 Copy 14" x="201.079" y="46.623" width="5.14481" height="5.09102" rx="2.54551" fill="#12595C"/>
<rect id="Rectangle 3 Copy 65" x="201.079" y="0.804688" width="5.14481" height="5.0909" rx="2.54545" fill="#12595C"/>
<rect id="Rectangle 3 Copy 13" x="216.513" y="46.623" width="5.14481" height="5.09102" rx="2.54551" fill="#12595C"/>
<rect id="Rectangle 3 Copy 66" x="216.513" y="0.804688" width="5.14481" height="5.0909" rx="2.54545" fill="#12595C"/>
<rect id="Rectangle 3 Copy 12" x="231.948" y="46.623" width="5.14481" height="5.09102" rx="2.54551" fill="#12595C"/>
<rect id="Rectangle 3 Copy 67" x="231.948" y="0.804688" width="5.14481" height="5.0909" rx="2.54545" fill="#12595C"/>
<rect id="Rectangle 3 Copy 29" x="123.907" y="61.8965" width="5.14481" height="5.0909" rx="2.54545" fill="#12595C"/>
<rect id="Rectangle 3 Copy 68" x="123.907" y="16.0781" width="5.14481" height="5.09102" rx="2.54551" fill="#12595C"/>
<rect id="Rectangle 3 Copy 28" x="139.342" y="61.8965" width="5.14481" height="5.0909" rx="2.54545" fill="#12595C"/>
<rect id="Rectangle 3 Copy 69" x="139.342" y="16.0781" width="5.14481" height="5.09102" rx="2.54551" fill="#12595C"/>
<rect id="Rectangle 3 Copy 27" x="154.776" y="61.8965" width="5.14481" height="5.0909" rx="2.54545" fill="#12595C"/>
<rect id="Rectangle 3 Copy 70" x="154.776" y="16.0781" width="5.14481" height="5.09102" rx="2.54551" fill="#12595C"/>
<rect id="Rectangle 3 Copy 26" x="170.21" y="61.8965" width="5.14481" height="5.0909" rx="2.54545" fill="#12595C"/>
<rect id="Rectangle 3 Copy 71" x="170.21" y="16.0781" width="5.14481" height="5.09102" rx="2.54551" fill="#12595C"/>
<rect id="Rectangle 3 Copy 25" x="185.645" y="61.8965" width="5.14481" height="5.0909" rx="2.54545" fill="#12595C"/>
<rect id="Rectangle 3 Copy 72" x="185.645" y="16.0781" width="5.14481" height="5.09102" rx="2.54551" fill="#12595C"/>
<rect id="Rectangle 3 Copy 24" x="201.079" y="61.8965" width="5.14481" height="5.0909" rx="2.54545" fill="#12595C"/>
<rect id="Rectangle 3 Copy 73" x="201.079" y="16.0781" width="5.14481" height="5.09102" rx="2.54551" fill="#12595C"/>
<rect id="Rectangle 3 Copy 23" x="216.513" y="61.8965" width="5.14481" height="5.0909" rx="2.54545" fill="#12595C"/>
<rect id="Rectangle 3 Copy 74" x="216.513" y="16.0781" width="5.14481" height="5.09102" rx="2.54551" fill="#12595C"/>
<rect id="Rectangle 3 Copy 22" x="231.948" y="61.8965" width="5.14481" height="5.0909" rx="2.54545" fill="#12595C"/>
<rect id="Rectangle 3 Copy 75" x="231.948" y="16.0781" width="5.14481" height="5.09102" rx="2.54551" fill="#12595C"/>
<rect id="Rectangle 3 Copy 39" x="123.907" y="77.168" width="5.14481" height="5.09102" rx="2.54551" fill="#12595C"/>
<rect id="Rectangle 3 Copy 76" x="123.907" y="31.3496" width="5.14481" height="5.09067" rx="2.54534" fill="#12595C"/>
<rect id="Rectangle 3 Copy 38" x="139.342" y="77.168" width="5.14481" height="5.09102" rx="2.54551" fill="#12595C"/>
<rect id="Rectangle 3 Copy 77" x="139.342" y="31.3496" width="5.14481" height="5.09067" rx="2.54534" fill="#12595C"/>
<rect id="Rectangle 3 Copy 37" x="154.776" y="77.168" width="5.14481" height="5.09102" rx="2.54551" fill="#12595C"/>
<rect id="Rectangle 3 Copy 78" x="154.776" y="31.3496" width="5.14481" height="5.09067" rx="2.54534" fill="#12595C"/>
<rect id="Rectangle 3 Copy 36" x="170.21" y="77.168" width="5.14481" height="5.09102" rx="2.54551" fill="#12595C"/>
<rect id="Rectangle 3 Copy 79" x="170.21" y="31.3496" width="5.14481" height="5.09067" rx="2.54534" fill="#12595C"/>
<rect id="Rectangle 3 Copy 35" x="185.645" y="77.168" width="5.14481" height="5.09102" rx="2.54551" fill="#12595C"/>
<rect id="Rectangle 3 Copy 80" x="185.645" y="31.3496" width="5.14481" height="5.09067" rx="2.54534" fill="#12595C"/>
<rect id="Rectangle 3 Copy 34" x="201.079" y="77.168" width="5.14481" height="5.09102" rx="2.54551" fill="#12595C"/>
<rect id="Rectangle 3 Copy 81" x="201.079" y="31.3496" width="5.14481" height="5.09067" rx="2.54534" fill="#12595C"/>
<rect id="Rectangle 3 Copy 33" x="216.513" y="77.168" width="5.14481" height="5.09102" rx="2.54551" fill="#12595C"/>
<rect id="Rectangle 3 Copy 82" x="216.513" y="31.3496" width="5.14481" height="5.09067" rx="2.54534" fill="#12595C"/>
<rect id="Rectangle 3 Copy 32" x="231.948" y="77.168" width="5.14481" height="5.09102" rx="2.54551" fill="#12595C"/>
<rect id="Rectangle 3 Copy 83" x="231.948" y="31.3496" width="5.14481" height="5.09067" rx="2.54534" fill="#12595C"/>
<rect id="Rectangle 3 Copy 49" x="123.907" y="92.4414" width="5.14481" height="5.09113" rx="2.54557" fill="#12595C"/>
<rect id="Rectangle 3 Copy 48" x="139.342" y="92.4414" width="5.14481" height="5.09113" rx="2.54557" fill="#12595C"/>
<rect id="Rectangle 3 Copy 47" x="154.776" y="92.4414" width="5.14481" height="5.09113" rx="2.54557" fill="#12595C"/>
<rect id="Rectangle 3 Copy 46" x="170.21" y="92.4414" width="5.14481" height="5.09113" rx="2.54557" fill="#12595C"/>
<rect id="Rectangle 3 Copy 45" x="185.645" y="92.4414" width="5.14481" height="5.09113" rx="2.54557" fill="#12595C"/>
<rect id="Rectangle 3 Copy 44" x="201.079" y="92.4414" width="5.14481" height="5.09113" rx="2.54557" fill="#12595C"/>
<rect id="Rectangle 3 Copy 43" x="216.513" y="92.4414" width="5.14481" height="5.09113" rx="2.54557" fill="#12595C"/>
<rect id="Rectangle 3 Copy 42" x="231.948" y="92.4414" width="5.14481" height="5.09113" rx="2.54557" fill="#12595C"/>
<rect id="Rectangle 3 Copy 59" x="123.907" y="107.715" width="5.14481" height="5.09079" rx="2.54539" fill="#12595C"/>
<rect id="Rectangle 3 Copy 58" x="139.342" y="107.715" width="5.14481" height="5.09079" rx="2.54539" fill="#12595C"/>
<rect id="Rectangle 3 Copy 57" x="154.776" y="107.715" width="5.14481" height="5.09079" rx="2.54539" fill="#12595C"/>
<rect id="Rectangle 3 Copy 56" x="170.21" y="107.715" width="5.14481" height="5.09079" rx="2.54539" fill="#12595C"/>
<rect id="Rectangle 3 Copy 55" x="185.645" y="107.715" width="5.14481" height="5.09079" rx="2.54539" fill="#12595C"/>
<rect id="Rectangle 3 Copy 54" x="201.079" y="107.715" width="5.14481" height="5.09079" rx="2.54539" fill="#12595C"/>
<rect id="Rectangle 3 Copy 53" x="216.513" y="107.715" width="5.14481" height="5.09079" rx="2.54539" fill="#12595C"/>
<rect id="Rectangle 3 Copy 52" x="231.948" y="107.715" width="5.14481" height="5.09079" rx="2.54539" fill="#12595C"/>
</g>
<g id="Titik-titik_2" opacity="0.2">
<rect id="Rectangle 3 Copy 19_2" x="0.906982" y="46.623" width="5.14481" height="5.09102" rx="2.54551" fill="#12595C"/>
<rect id="Rectangle 3 Copy 60_2" x="0.906982" y="0.804688" width="5.14481" height="5.0909" rx="2.54545" fill="#12595C"/>
<rect id="Rectangle 3 Copy 18_2" x="16.3417" y="46.623" width="5.14481" height="5.09102" rx="2.54551" fill="#12595C"/>
<rect id="Rectangle 3 Copy 61_2" x="16.3417" y="0.804688" width="5.14481" height="5.0909" rx="2.54545" fill="#12595C"/>
<rect id="Rectangle 3 Copy 17_2" x="31.7764" y="46.623" width="5.14481" height="5.09102" rx="2.54551" fill="#12595C"/>
<rect id="Rectangle 3 Copy 62_2" x="31.7753" y="0.804688" width="5.14481" height="5.0909" rx="2.54545" fill="#12595C"/>
<rect id="Rectangle 3 Copy 16_2" x="47.2104" y="46.623" width="5.14481" height="5.09102" rx="2.54551" fill="#12595C"/>
<rect id="Rectangle 3 Copy 63_2" x="47.2104" y="0.804688" width="5.14481" height="5.0909" rx="2.54545" fill="#12595C"/>
<rect id="Rectangle 3 Copy 15_2" x="62.6453" y="46.623" width="5.14481" height="5.09102" rx="2.54551" fill="#12595C"/>
<rect id="Rectangle 3 Copy 64_2" x="62.6453" y="0.804688" width="5.14481" height="5.0909" rx="2.54545" fill="#12595C"/>
<rect id="Rectangle 3 Copy 14_2" x="78.0793" y="46.623" width="5.14481" height="5.09102" rx="2.54551" fill="#12595C"/>
<rect id="Rectangle 3 Copy 65_2" x="78.0793" y="0.804688" width="5.14481" height="5.0909" rx="2.54545" fill="#12595C"/>
<rect id="Rectangle 3 Copy 13_2" x="93.5134" y="46.623" width="5.14481" height="5.09102" rx="2.54551" fill="#12595C"/>
<rect id="Rectangle 3 Copy 66_2" x="93.5134" y="0.804688" width="5.14481" height="5.0909" rx="2.54545" fill="#12595C"/>
<rect id="Rectangle 3 Copy 12_2" x="108.948" y="46.623" width="5.14481" height="5.09102" rx="2.54551" fill="#12595C"/>
<rect id="Rectangle 3 Copy 67_2" x="108.948" y="0.804688" width="5.14481" height="5.0909" rx="2.54545" fill="#12595C"/>
<rect id="Rectangle 3 Copy 29_2" x="0.906982" y="61.8965" width="5.14481" height="5.0909" rx="2.54545" fill="#12595C"/>
<rect id="Rectangle 3 Copy 68_2" x="0.906982" y="16.0781" width="5.14481" height="5.09102" rx="2.54551" fill="#12595C"/>
<rect id="Rectangle 3 Copy 28_2" x="16.3417" y="61.8965" width="5.14481" height="5.0909" rx="2.54545" fill="#12595C"/>
<rect id="Rectangle 3 Copy 69_2" x="16.3417" y="16.0781" width="5.14481" height="5.09102" rx="2.54551" fill="#12595C"/>
<rect id="Rectangle 3 Copy 27_2" x="31.7764" y="61.8965" width="5.14481" height="5.0909" rx="2.54545" fill="#12595C"/>
<rect id="Rectangle 3 Copy 70_2" x="31.7764" y="16.0781" width="5.14481" height="5.09102" rx="2.54551" fill="#12595C"/>
<rect id="Rectangle 3 Copy 26_2" x="47.2104" y="61.8965" width="5.14481" height="5.0909" rx="2.54545" fill="#12595C"/>
<rect id="Rectangle 3 Copy 71_2" x="47.2104" y="16.0781" width="5.14481" height="5.09102" rx="2.54551" fill="#12595C"/>
<rect id="Rectangle 3 Copy 25_2" x="62.6453" y="61.8965" width="5.14481" height="5.0909" rx="2.54545" fill="#12595C"/>
<rect id="Rectangle 3 Copy 72_2" x="62.6453" y="16.0781" width="5.14481" height="5.09102" rx="2.54551" fill="#12595C"/>
<rect id="Rectangle 3 Copy 24_2" x="78.0793" y="61.8965" width="5.14481" height="5.0909" rx="2.54545" fill="#12595C"/>
<rect id="Rectangle 3 Copy 73_2" x="78.0793" y="16.0781" width="5.14481" height="5.09102" rx="2.54551" fill="#12595C"/>
<rect id="Rectangle 3 Copy 23_2" x="93.5134" y="61.8965" width="5.14481" height="5.0909" rx="2.54545" fill="#12595C"/>
<rect id="Rectangle 3 Copy 74_2" x="93.5134" y="16.0781" width="5.14481" height="5.09102" rx="2.54551" fill="#12595C"/>
<rect id="Rectangle 3 Copy 22_2" x="108.948" y="61.8965" width="5.14481" height="5.0909" rx="2.54545" fill="#12595C"/>
<rect id="Rectangle 3 Copy 75_2" x="108.948" y="16.0781" width="5.14481" height="5.09102" rx="2.54551" fill="#12595C"/>
<rect id="Rectangle 3 Copy 39_2" x="0.906982" y="77.168" width="5.14481" height="5.09102" rx="2.54551" fill="#12595C"/>
<rect id="Rectangle 3 Copy 76_2" x="0.906982" y="31.3496" width="5.14481" height="5.09067" rx="2.54534" fill="#12595C"/>
<rect id="Rectangle 3 Copy 38_2" x="16.3417" y="77.168" width="5.14481" height="5.09102" rx="2.54551" fill="#12595C"/>
<rect id="Rectangle 3 Copy 77_2" x="16.3417" y="31.3496" width="5.14481" height="5.09067" rx="2.54534" fill="#12595C"/>
<rect id="Rectangle 3 Copy 37_2" x="31.7764" y="77.168" width="5.14481" height="5.09102" rx="2.54551" fill="#12595C"/>
<rect id="Rectangle 3 Copy 78_2" x="31.7764" y="31.3496" width="5.14481" height="5.09067" rx="2.54534" fill="#12595C"/>
<rect id="Rectangle 3 Copy 36_2" x="47.2104" y="77.168" width="5.14481" height="5.09102" rx="2.54551" fill="#12595C"/>
<rect id="Rectangle 3 Copy 79_2" x="47.2104" y="31.3496" width="5.14481" height="5.09067" rx="2.54534" fill="#12595C"/>
<rect id="Rectangle 3 Copy 35_2" x="62.6453" y="77.168" width="5.14481" height="5.09102" rx="2.54551" fill="#12595C"/>
<rect id="Rectangle 3 Copy 80_2" x="62.6453" y="31.3496" width="5.14481" height="5.09067" rx="2.54534" fill="#12595C"/>
<rect id="Rectangle 3 Copy 34_2" x="78.0793" y="77.168" width="5.14481" height="5.09102" rx="2.54551" fill="#12595C"/>
<rect id="Rectangle 3 Copy 81_2" x="78.0793" y="31.3496" width="5.14481" height="5.09067" rx="2.54534" fill="#12595C"/>
<rect id="Rectangle 3 Copy 33_2" x="93.5134" y="77.168" width="5.14481" height="5.09102" rx="2.54551" fill="#12595C"/>
<rect id="Rectangle 3 Copy 82_2" x="93.5134" y="31.3496" width="5.14481" height="5.09067" rx="2.54534" fill="#12595C"/>
<rect id="Rectangle 3 Copy 32_2" x="108.948" y="77.168" width="5.14481" height="5.09102" rx="2.54551" fill="#12595C"/>
<rect id="Rectangle 3 Copy 83_2" x="108.948" y="31.3496" width="5.14481" height="5.09067" rx="2.54534" fill="#12595C"/>
<rect id="Rectangle 3 Copy 49_2" x="0.906982" y="92.4414" width="5.14481" height="5.09113" rx="2.54557" fill="#12595C"/>
<rect id="Rectangle 3 Copy 48_2" x="16.3417" y="92.4414" width="5.14481" height="5.09113" rx="2.54557" fill="#12595C"/>
<rect id="Rectangle 3 Copy 47_2" x="31.7764" y="92.4414" width="5.14481" height="5.09113" rx="2.54557" fill="#12595C"/>
<rect id="Rectangle 3 Copy 46_2" x="47.2104" y="92.4414" width="5.14481" height="5.09113" rx="2.54557" fill="#12595C"/>
<rect id="Rectangle 3 Copy 45_2" x="62.6453" y="92.4414" width="5.14481" height="5.09113" rx="2.54557" fill="#12595C"/>
<rect id="Rectangle 3 Copy 44_2" x="78.0793" y="92.4414" width="5.14481" height="5.09113" rx="2.54557" fill="#12595C"/>
<rect id="Rectangle 3 Copy 43_2" x="93.5134" y="92.4414" width="5.14481" height="5.09113" rx="2.54557" fill="#12595C"/>
<rect id="Rectangle 3 Copy 42_2" x="108.948" y="92.4414" width="5.14481" height="5.09113" rx="2.54557" fill="#12595C"/>
<rect id="Rectangle 3 Copy 59_2" x="0.906982" y="107.715" width="5.14481" height="5.09079" rx="2.54539" fill="#12595C"/>
<rect id="Rectangle 3 Copy 58_2" x="16.3417" y="107.715" width="5.14481" height="5.09079" rx="2.54539" fill="#12595C"/>
<rect id="Rectangle 3 Copy 57_2" x="31.7764" y="107.715" width="5.14481" height="5.09079" rx="2.54539" fill="#12595C"/>
<rect id="Rectangle 3 Copy 56_2" x="47.2104" y="107.715" width="5.14481" height="5.09079" rx="2.54539" fill="#12595C"/>
<rect id="Rectangle 3 Copy 55_2" x="62.6453" y="107.715" width="5.14481" height="5.09079" rx="2.54539" fill="#12595C"/>
<rect id="Rectangle 3 Copy 54_2" x="78.0793" y="107.715" width="5.14481" height="5.09079" rx="2.54539" fill="#12595C"/>
<rect id="Rectangle 3 Copy 53_2" x="93.5134" y="107.715" width="5.14481" height="5.09079" rx="2.54539" fill="#12595C"/>
<rect id="Rectangle 3 Copy 52_2" x="108.948" y="107.715" width="5.14481" height="5.09079" rx="2.54539" fill="#12595C"/>
</g>
</g>
</svg>
