<svg width="174" height="113" viewBox="0 0 174 113" fill="none" xmlns="http://www.w3.org/2000/svg">
<g id="Group 33828">
<g id="Titik-titik" opacity="0.2">
<rect id="Rectangle 3 Copy 19" x="60" y="46.623" width="5.14481" height="5.09102" rx="2.54551" fill="#12595C"/>
<rect id="Rectangle 3 Copy 60" x="60" y="0.804688" width="5.14481" height="5.0909" rx="2.54545" fill="#12595C"/>
<rect id="Rectangle 3 Copy 18" x="75.4348" y="46.623" width="5.14481" height="5.09102" rx="2.54551" fill="#12595C"/>
<rect id="Rectangle 3 Copy 61" x="75.4348" y="0.804688" width="5.14481" height="5.0909" rx="2.54545" fill="#12595C"/>
<rect id="Rectangle 3 Copy 17" x="90.8694" y="46.623" width="5.14481" height="5.09102" rx="2.54551" fill="#12595C"/>
<rect id="Rectangle 3 Copy 62" x="90.8682" y="0.804688" width="5.14481" height="5.0909" rx="2.54545" fill="#12595C"/>
<rect id="Rectangle 3 Copy 16" x="106.303" y="46.623" width="5.14481" height="5.09102" rx="2.54551" fill="#12595C"/>
<rect id="Rectangle 3 Copy 63" x="106.303" y="0.804688" width="5.14481" height="5.0909" rx="2.54545" fill="#12595C"/>
<rect id="Rectangle 3 Copy 15" x="121.738" y="46.623" width="5.14481" height="5.09102" rx="2.54551" fill="#12595C"/>
<rect id="Rectangle 3 Copy 64" x="121.738" y="0.804688" width="5.14481" height="5.0909" rx="2.54545" fill="#12595C"/>
<rect id="Rectangle 3 Copy 14" x="137.172" y="46.623" width="5.14481" height="5.09102" rx="2.54551" fill="#12595C"/>
<rect id="Rectangle 3 Copy 65" x="137.172" y="0.804688" width="5.14481" height="5.0909" rx="2.54545" fill="#12595C"/>
<rect id="Rectangle 3 Copy 13" x="152.606" y="46.623" width="5.14481" height="5.09102" rx="2.54551" fill="#12595C"/>
<rect id="Rectangle 3 Copy 66" x="152.606" y="0.804688" width="5.14481" height="5.0909" rx="2.54545" fill="#12595C"/>
<rect id="Rectangle 3 Copy 12" x="168.041" y="46.623" width="5.14481" height="5.09102" rx="2.54551" fill="#12595C"/>
<rect id="Rectangle 3 Copy 67" x="168.041" y="0.804688" width="5.14481" height="5.0909" rx="2.54545" fill="#12595C"/>
<rect id="Rectangle 3 Copy 29" x="60" y="61.8965" width="5.14481" height="5.0909" rx="2.54545" fill="#12595C"/>
<rect id="Rectangle 3 Copy 68" x="60" y="16.0781" width="5.14481" height="5.09102" rx="2.54551" fill="#12595C"/>
<rect id="Rectangle 3 Copy 28" x="75.4348" y="61.8965" width="5.14481" height="5.0909" rx="2.54545" fill="#12595C"/>
<rect id="Rectangle 3 Copy 69" x="75.4348" y="16.0781" width="5.14481" height="5.09102" rx="2.54551" fill="#12595C"/>
<rect id="Rectangle 3 Copy 27" x="90.8694" y="61.8965" width="5.14481" height="5.0909" rx="2.54545" fill="#12595C"/>
<rect id="Rectangle 3 Copy 70" x="90.8694" y="16.0781" width="5.14481" height="5.09102" rx="2.54551" fill="#12595C"/>
<rect id="Rectangle 3 Copy 26" x="106.303" y="61.8965" width="5.14481" height="5.0909" rx="2.54545" fill="#12595C"/>
<rect id="Rectangle 3 Copy 71" x="106.303" y="16.0781" width="5.14481" height="5.09102" rx="2.54551" fill="#12595C"/>
<rect id="Rectangle 3 Copy 25" x="121.738" y="61.8965" width="5.14481" height="5.0909" rx="2.54545" fill="#12595C"/>
<rect id="Rectangle 3 Copy 72" x="121.738" y="16.0781" width="5.14481" height="5.09102" rx="2.54551" fill="#12595C"/>
<rect id="Rectangle 3 Copy 24" x="137.172" y="61.8965" width="5.14481" height="5.0909" rx="2.54545" fill="#12595C"/>
<rect id="Rectangle 3 Copy 73" x="137.172" y="16.0781" width="5.14481" height="5.09102" rx="2.54551" fill="#12595C"/>
<rect id="Rectangle 3 Copy 23" x="152.606" y="61.8965" width="5.14481" height="5.0909" rx="2.54545" fill="#12595C"/>
<rect id="Rectangle 3 Copy 74" x="152.606" y="16.0781" width="5.14481" height="5.09102" rx="2.54551" fill="#12595C"/>
<rect id="Rectangle 3 Copy 22" x="168.041" y="61.8965" width="5.14481" height="5.0909" rx="2.54545" fill="#12595C"/>
<rect id="Rectangle 3 Copy 75" x="168.041" y="16.0781" width="5.14481" height="5.09102" rx="2.54551" fill="#12595C"/>
<rect id="Rectangle 3 Copy 39" x="60" y="77.168" width="5.14481" height="5.09102" rx="2.54551" fill="#12595C"/>
<rect id="Rectangle 3 Copy 76" x="60" y="31.3496" width="5.14481" height="5.09067" rx="2.54534" fill="#12595C"/>
<rect id="Rectangle 3 Copy 38" x="75.4348" y="77.168" width="5.14481" height="5.09102" rx="2.54551" fill="#12595C"/>
<rect id="Rectangle 3 Copy 77" x="75.4348" y="31.3496" width="5.14481" height="5.09067" rx="2.54534" fill="#12595C"/>
<rect id="Rectangle 3 Copy 37" x="90.8694" y="77.168" width="5.14481" height="5.09102" rx="2.54551" fill="#12595C"/>
<rect id="Rectangle 3 Copy 78" x="90.8694" y="31.3496" width="5.14481" height="5.09067" rx="2.54534" fill="#12595C"/>
<rect id="Rectangle 3 Copy 36" x="106.303" y="77.168" width="5.14481" height="5.09102" rx="2.54551" fill="#12595C"/>
<rect id="Rectangle 3 Copy 79" x="106.303" y="31.3496" width="5.14481" height="5.09067" rx="2.54534" fill="#12595C"/>
<rect id="Rectangle 3 Copy 35" x="121.738" y="77.168" width="5.14481" height="5.09102" rx="2.54551" fill="#12595C"/>
<rect id="Rectangle 3 Copy 80" x="121.738" y="31.3496" width="5.14481" height="5.09067" rx="2.54534" fill="#12595C"/>
<rect id="Rectangle 3 Copy 34" x="137.172" y="77.168" width="5.14481" height="5.09102" rx="2.54551" fill="#12595C"/>
<rect id="Rectangle 3 Copy 81" x="137.172" y="31.3496" width="5.14481" height="5.09067" rx="2.54534" fill="#12595C"/>
<rect id="Rectangle 3 Copy 33" x="152.606" y="77.168" width="5.14481" height="5.09102" rx="2.54551" fill="#12595C"/>
<rect id="Rectangle 3 Copy 82" x="152.606" y="31.3496" width="5.14481" height="5.09067" rx="2.54534" fill="#12595C"/>
<rect id="Rectangle 3 Copy 32" x="168.041" y="77.168" width="5.14481" height="5.09102" rx="2.54551" fill="#12595C"/>
<rect id="Rectangle 3 Copy 83" x="168.041" y="31.3496" width="5.14481" height="5.09067" rx="2.54534" fill="#12595C"/>
<rect id="Rectangle 3 Copy 49" x="60" y="92.4414" width="5.14481" height="5.09113" rx="2.54557" fill="#12595C"/>
<rect id="Rectangle 3 Copy 48" x="75.4348" y="92.4414" width="5.14481" height="5.09113" rx="2.54557" fill="#12595C"/>
<rect id="Rectangle 3 Copy 47" x="90.8694" y="92.4414" width="5.14481" height="5.09113" rx="2.54557" fill="#12595C"/>
<rect id="Rectangle 3 Copy 46" x="106.303" y="92.4414" width="5.14481" height="5.09113" rx="2.54557" fill="#12595C"/>
<rect id="Rectangle 3 Copy 45" x="121.738" y="92.4414" width="5.14481" height="5.09113" rx="2.54557" fill="#12595C"/>
<rect id="Rectangle 3 Copy 44" x="137.172" y="92.4414" width="5.14481" height="5.09113" rx="2.54557" fill="#12595C"/>
<rect id="Rectangle 3 Copy 43" x="152.606" y="92.4414" width="5.14481" height="5.09113" rx="2.54557" fill="#12595C"/>
<rect id="Rectangle 3 Copy 42" x="168.041" y="92.4414" width="5.14481" height="5.09113" rx="2.54557" fill="#12595C"/>
<rect id="Rectangle 3 Copy 59" x="60" y="107.715" width="5.14481" height="5.09079" rx="2.54539" fill="#12595C"/>
<rect id="Rectangle 3 Copy 58" x="75.4348" y="107.715" width="5.14481" height="5.09079" rx="2.54539" fill="#12595C"/>
<rect id="Rectangle 3 Copy 57" x="90.8694" y="107.715" width="5.14481" height="5.09079" rx="2.54539" fill="#12595C"/>
<rect id="Rectangle 3 Copy 56" x="106.303" y="107.715" width="5.14481" height="5.09079" rx="2.54539" fill="#12595C"/>
<rect id="Rectangle 3 Copy 55" x="121.738" y="107.715" width="5.14481" height="5.09079" rx="2.54539" fill="#12595C"/>
<rect id="Rectangle 3 Copy 54" x="137.172" y="107.715" width="5.14481" height="5.09079" rx="2.54539" fill="#12595C"/>
<rect id="Rectangle 3 Copy 53" x="152.606" y="107.715" width="5.14481" height="5.09079" rx="2.54539" fill="#12595C"/>
<rect id="Rectangle 3 Copy 52" x="168.041" y="107.715" width="5.14481" height="5.09079" rx="2.54539" fill="#12595C"/>
</g>
<g id="Titik-titik_2" opacity="0.2">
<rect id="Rectangle 3 Copy 15_2" x="-1.26172" y="46.623" width="5.14481" height="5.09102" rx="2.54551" fill="#12595C"/>
<rect id="Rectangle 3 Copy 64_2" x="-1.26172" y="0.804688" width="5.14481" height="5.0909" rx="2.54545" fill="#12595C"/>
<rect id="Rectangle 3 Copy 14_2" x="14.1724" y="46.623" width="5.14481" height="5.09102" rx="2.54551" fill="#12595C"/>
<rect id="Rectangle 3 Copy 65_2" x="14.1724" y="0.804688" width="5.14481" height="5.0909" rx="2.54545" fill="#12595C"/>
<rect id="Rectangle 3 Copy 13_2" x="29.6064" y="46.623" width="5.14481" height="5.09102" rx="2.54551" fill="#12595C"/>
<rect id="Rectangle 3 Copy 66_2" x="29.6064" y="0.804688" width="5.14481" height="5.0909" rx="2.54545" fill="#12595C"/>
<rect id="Rectangle 3 Copy 12_2" x="45.0413" y="46.623" width="5.14481" height="5.09102" rx="2.54551" fill="#12595C"/>
<rect id="Rectangle 3 Copy 67_2" x="45.0413" y="0.804688" width="5.14481" height="5.0909" rx="2.54545" fill="#12595C"/>
<rect id="Rectangle 3 Copy 25_2" x="-1.26172" y="61.8965" width="5.14481" height="5.0909" rx="2.54545" fill="#12595C"/>
<rect id="Rectangle 3 Copy 72_2" x="-1.26172" y="16.0781" width="5.14481" height="5.09102" rx="2.54551" fill="#12595C"/>
<rect id="Rectangle 3 Copy 24_2" x="14.1724" y="61.8965" width="5.14481" height="5.0909" rx="2.54545" fill="#12595C"/>
<rect id="Rectangle 3 Copy 73_2" x="14.1724" y="16.0781" width="5.14481" height="5.09102" rx="2.54551" fill="#12595C"/>
<rect id="Rectangle 3 Copy 23_2" x="29.6064" y="61.8965" width="5.14481" height="5.0909" rx="2.54545" fill="#12595C"/>
<rect id="Rectangle 3 Copy 74_2" x="29.6064" y="16.0781" width="5.14481" height="5.09102" rx="2.54551" fill="#12595C"/>
<rect id="Rectangle 3 Copy 22_2" x="45.0413" y="61.8965" width="5.14481" height="5.0909" rx="2.54545" fill="#12595C"/>
<rect id="Rectangle 3 Copy 75_2" x="45.0413" y="16.0781" width="5.14481" height="5.09102" rx="2.54551" fill="#12595C"/>
<rect id="Rectangle 3 Copy 35_2" x="-1.26172" y="77.168" width="5.14481" height="5.09102" rx="2.54551" fill="#12595C"/>
<rect id="Rectangle 3 Copy 80_2" x="-1.26172" y="31.3496" width="5.14481" height="5.09067" rx="2.54534" fill="#12595C"/>
<rect id="Rectangle 3 Copy 34_2" x="14.1724" y="77.168" width="5.14481" height="5.09102" rx="2.54551" fill="#12595C"/>
<rect id="Rectangle 3 Copy 81_2" x="14.1724" y="31.3496" width="5.14481" height="5.09067" rx="2.54534" fill="#12595C"/>
<rect id="Rectangle 3 Copy 33_2" x="29.6064" y="77.168" width="5.14481" height="5.09102" rx="2.54551" fill="#12595C"/>
<rect id="Rectangle 3 Copy 82_2" x="29.6064" y="31.3496" width="5.14481" height="5.09067" rx="2.54534" fill="#12595C"/>
<rect id="Rectangle 3 Copy 32_2" x="45.0413" y="77.168" width="5.14481" height="5.09102" rx="2.54551" fill="#12595C"/>
<rect id="Rectangle 3 Copy 83_2" x="45.0413" y="31.3496" width="5.14481" height="5.09067" rx="2.54534" fill="#12595C"/>
<rect id="Rectangle 3 Copy 45_2" x="-1.26172" y="92.4414" width="5.14481" height="5.09113" rx="2.54557" fill="#12595C"/>
<rect id="Rectangle 3 Copy 44_2" x="14.1724" y="92.4414" width="5.14481" height="5.09113" rx="2.54557" fill="#12595C"/>
<rect id="Rectangle 3 Copy 43_2" x="29.6064" y="92.4414" width="5.14481" height="5.09113" rx="2.54557" fill="#12595C"/>
<rect id="Rectangle 3 Copy 42_2" x="45.0413" y="92.4414" width="5.14481" height="5.09113" rx="2.54557" fill="#12595C"/>
<rect id="Rectangle 3 Copy 55_2" x="-1.26172" y="107.715" width="5.14481" height="5.09079" rx="2.54539" fill="#12595C"/>
<rect id="Rectangle 3 Copy 54_2" x="14.1724" y="107.715" width="5.14481" height="5.09079" rx="2.54539" fill="#12595C"/>
<rect id="Rectangle 3 Copy 53_2" x="29.6064" y="107.715" width="5.14481" height="5.09079" rx="2.54539" fill="#12595C"/>
<rect id="Rectangle 3 Copy 52_2" x="45.0413" y="107.715" width="5.14481" height="5.09079" rx="2.54539" fill="#12595C"/>
</g>
</g>
</svg>
