<svg width="198" height="113" viewBox="0 0 198 113" fill="none" xmlns="http://www.w3.org/2000/svg">
<g id="Group 33846">
<g id="Titik-titik">
<rect id="Rectangle 3 Copy 19" x="123.566" y="45.9551" width="5.14481" height="5.09102" rx="2.54551" fill="#DB5962"/>
<rect id="Rectangle 3 Copy 60" x="123.566" y="0.136719" width="5.14481" height="5.0909" rx="2.54545" fill="#DB5962"/>
<rect id="Rectangle 3 Copy 18" x="139.001" y="45.9551" width="5.14481" height="5.09102" rx="2.54551" fill="#DB5962"/>
<rect id="Rectangle 3 Copy 61" x="139.001" y="0.136719" width="5.14481" height="5.0909" rx="2.54545" fill="#DB5962"/>
<rect id="Rectangle 3 Copy 17" x="154.436" y="45.9551" width="5.14481" height="5.09102" rx="2.54551" fill="#DB5962"/>
<rect id="Rectangle 3 Copy 62" x="154.435" y="0.136719" width="5.14481" height="5.0909" rx="2.54545" fill="#DB5962"/>
<rect id="Rectangle 3 Copy 16" x="169.87" y="45.9551" width="5.14481" height="5.09102" rx="2.54551" fill="#DB5962"/>
<rect id="Rectangle 3 Copy 63" x="169.87" y="0.136719" width="5.14481" height="5.0909" rx="2.54545" fill="#DB5962"/>
<rect id="Rectangle 3 Copy 15" x="185.305" y="45.9551" width="5.14481" height="5.09102" rx="2.54551" fill="#DB5962"/>
<rect id="Rectangle 3 Copy 64" x="185.305" y="0.136719" width="5.14481" height="5.0909" rx="2.54545" fill="#DB5962"/>
<rect id="Rectangle 3 Copy 29" x="123.566" y="61.2285" width="5.14481" height="5.0909" rx="2.54545" fill="#DB5962"/>
<rect id="Rectangle 3 Copy 68" x="123.566" y="15.4102" width="5.14481" height="5.09102" rx="2.54551" fill="#DB5962"/>
<rect id="Rectangle 3 Copy 28" x="139.001" y="61.2285" width="5.14481" height="5.0909" rx="2.54545" fill="#DB5962"/>
<rect id="Rectangle 3 Copy 69" x="139.001" y="15.4102" width="5.14481" height="5.09102" rx="2.54551" fill="#DB5962"/>
<rect id="Rectangle 3 Copy 27" x="154.436" y="61.2285" width="5.14481" height="5.0909" rx="2.54545" fill="#DB5962"/>
<rect id="Rectangle 3 Copy 70" x="154.436" y="15.4102" width="5.14481" height="5.09102" rx="2.54551" fill="#DB5962"/>
<rect id="Rectangle 3 Copy 26" x="169.87" y="61.2285" width="5.14481" height="5.0909" rx="2.54545" fill="#DB5962"/>
<rect id="Rectangle 3 Copy 71" x="169.87" y="15.4102" width="5.14481" height="5.09102" rx="2.54551" fill="#DB5962"/>
<rect id="Rectangle 3 Copy 25" x="185.305" y="61.2285" width="5.14481" height="5.0909" rx="2.54545" fill="#DB5962"/>
<rect id="Rectangle 3 Copy 72" x="185.305" y="15.4102" width="5.14481" height="5.09102" rx="2.54551" fill="#DB5962"/>
<rect id="Rectangle 3 Copy 39" x="123.566" y="76.5" width="5.14481" height="5.09102" rx="2.54551" fill="#DB5962"/>
<rect id="Rectangle 3 Copy 76" x="123.566" y="30.6816" width="5.14481" height="5.09067" rx="2.54534" fill="#DB5962"/>
<rect id="Rectangle 3 Copy 38" x="139.001" y="76.5" width="5.14481" height="5.09102" rx="2.54551" fill="#DB5962"/>
<rect id="Rectangle 3 Copy 77" x="139.001" y="30.6816" width="5.14481" height="5.09067" rx="2.54534" fill="#DB5962"/>
<rect id="Rectangle 3 Copy 37" x="154.436" y="76.5" width="5.14481" height="5.09102" rx="2.54551" fill="#DB5962"/>
<rect id="Rectangle 3 Copy 78" x="154.436" y="30.6816" width="5.14481" height="5.09067" rx="2.54534" fill="#DB5962"/>
<rect id="Rectangle 3 Copy 36" x="169.87" y="76.5" width="5.14481" height="5.09102" rx="2.54551" fill="#DB5962"/>
<rect id="Rectangle 3 Copy 79" x="169.87" y="30.6816" width="5.14481" height="5.09067" rx="2.54534" fill="#DB5962"/>
<rect id="Rectangle 3 Copy 35" x="185.305" y="76.5" width="5.14481" height="5.09102" rx="2.54551" fill="#DB5962"/>
<rect id="Rectangle 3 Copy 80" x="185.305" y="30.6816" width="5.14481" height="5.09067" rx="2.54534" fill="#DB5962"/>
<rect id="Rectangle 3 Copy 49" x="123.566" y="91.7734" width="5.14481" height="5.09113" rx="2.54557" fill="#DB5962"/>
<rect id="Rectangle 3 Copy 48" x="139.001" y="91.7734" width="5.14481" height="5.09113" rx="2.54557" fill="#DB5962"/>
<rect id="Rectangle 3 Copy 47" x="154.436" y="91.7734" width="5.14481" height="5.09113" rx="2.54557" fill="#DB5962"/>
<rect id="Rectangle 3 Copy 46" x="169.87" y="91.7734" width="5.14481" height="5.09113" rx="2.54557" fill="#DB5962"/>
<rect id="Rectangle 3 Copy 45" x="185.305" y="91.7734" width="5.14481" height="5.09113" rx="2.54557" fill="#DB5962"/>
<rect id="Rectangle 3 Copy 59" x="123.566" y="107.047" width="5.14481" height="5.09079" rx="2.54539" fill="#DB5962"/>
<rect id="Rectangle 3 Copy 58" x="139.001" y="107.047" width="5.14481" height="5.09079" rx="2.54539" fill="#DB5962"/>
<rect id="Rectangle 3 Copy 57" x="154.436" y="107.047" width="5.14481" height="5.09079" rx="2.54539" fill="#DB5962"/>
<rect id="Rectangle 3 Copy 56" x="169.87" y="107.047" width="5.14481" height="5.09079" rx="2.54539" fill="#DB5962"/>
<rect id="Rectangle 3 Copy 55" x="185.305" y="107.047" width="5.14481" height="5.09079" rx="2.54539" fill="#DB5962"/>
</g>
<g id="Titik-titik_2">
<rect id="Rectangle 3 Copy 19_2" x="0.566406" y="45.9551" width="5.14481" height="5.09102" rx="2.54551" fill="#DB5962"/>
<rect id="Rectangle 3 Copy 60_2" x="0.566406" y="0.136719" width="5.14481" height="5.0909" rx="2.54545" fill="#DB5962"/>
<rect id="Rectangle 3 Copy 18_2" x="16.001" y="45.9551" width="5.14481" height="5.09102" rx="2.54551" fill="#DB5962"/>
<rect id="Rectangle 3 Copy 61_2" x="16.001" y="0.136719" width="5.14481" height="5.0909" rx="2.54545" fill="#DB5962"/>
<rect id="Rectangle 3 Copy 17_2" x="31.4355" y="45.9551" width="5.14481" height="5.09102" rx="2.54551" fill="#DB5962"/>
<rect id="Rectangle 3 Copy 62_2" x="31.4346" y="0.136719" width="5.14481" height="5.0909" rx="2.54545" fill="#DB5962"/>
<rect id="Rectangle 3 Copy 16_2" x="46.8701" y="45.9551" width="5.14481" height="5.09102" rx="2.54551" fill="#DB5962"/>
<rect id="Rectangle 3 Copy 63_2" x="46.8701" y="0.136719" width="5.14481" height="5.0909" rx="2.54545" fill="#DB5962"/>
<rect id="Rectangle 3 Copy 15_2" x="62.3047" y="45.9551" width="5.14481" height="5.09102" rx="2.54551" fill="#DB5962"/>
<rect id="Rectangle 3 Copy 64_2" x="62.3047" y="0.136719" width="5.14481" height="5.0909" rx="2.54545" fill="#DB5962"/>
<rect id="Rectangle 3 Copy 14" x="77.7383" y="45.9551" width="5.14481" height="5.09102" rx="2.54551" fill="#DB5962"/>
<rect id="Rectangle 3 Copy 65" x="77.7383" y="0.136719" width="5.14481" height="5.0909" rx="2.54545" fill="#DB5962"/>
<rect id="Rectangle 3 Copy 13" x="93.1729" y="45.9551" width="5.14481" height="5.09102" rx="2.54551" fill="#DB5962"/>
<rect id="Rectangle 3 Copy 66" x="93.1729" y="0.136719" width="5.14481" height="5.0909" rx="2.54545" fill="#DB5962"/>
<rect id="Rectangle 3 Copy 12" x="108.607" y="45.9551" width="5.14481" height="5.09102" rx="2.54551" fill="#DB5962"/>
<rect id="Rectangle 3 Copy 67" x="108.607" y="0.136719" width="5.14481" height="5.0909" rx="2.54545" fill="#DB5962"/>
<rect id="Rectangle 3 Copy 29_2" x="0.566406" y="61.2285" width="5.14481" height="5.0909" rx="2.54545" fill="#DB5962"/>
<rect id="Rectangle 3 Copy 68_2" x="0.566406" y="15.4102" width="5.14481" height="5.09102" rx="2.54551" fill="#DB5962"/>
<rect id="Rectangle 3 Copy 28_2" x="16.001" y="61.2285" width="5.14481" height="5.0909" rx="2.54545" fill="#DB5962"/>
<rect id="Rectangle 3 Copy 69_2" x="16.001" y="15.4102" width="5.14481" height="5.09102" rx="2.54551" fill="#DB5962"/>
<rect id="Rectangle 3 Copy 27_2" x="31.4355" y="61.2285" width="5.14481" height="5.0909" rx="2.54545" fill="#DB5962"/>
<rect id="Rectangle 3 Copy 70_2" x="31.4355" y="15.4102" width="5.14481" height="5.09102" rx="2.54551" fill="#DB5962"/>
<rect id="Rectangle 3 Copy 26_2" x="46.8701" y="61.2285" width="5.14481" height="5.0909" rx="2.54545" fill="#DB5962"/>
<rect id="Rectangle 3 Copy 71_2" x="46.8701" y="15.4102" width="5.14481" height="5.09102" rx="2.54551" fill="#DB5962"/>
<rect id="Rectangle 3 Copy 25_2" x="62.3047" y="61.2285" width="5.14481" height="5.0909" rx="2.54545" fill="#DB5962"/>
<rect id="Rectangle 3 Copy 72_2" x="62.3047" y="15.4102" width="5.14481" height="5.09102" rx="2.54551" fill="#DB5962"/>
<rect id="Rectangle 3 Copy 24" x="77.7383" y="61.2285" width="5.14481" height="5.0909" rx="2.54545" fill="#DB5962"/>
<rect id="Rectangle 3 Copy 73" x="77.7383" y="15.4102" width="5.14481" height="5.09102" rx="2.54551" fill="#DB5962"/>
<rect id="Rectangle 3 Copy 23" x="93.1729" y="61.2285" width="5.14481" height="5.0909" rx="2.54545" fill="#DB5962"/>
<rect id="Rectangle 3 Copy 74" x="93.1729" y="15.4102" width="5.14481" height="5.09102" rx="2.54551" fill="#DB5962"/>
<rect id="Rectangle 3 Copy 22" x="108.607" y="61.2285" width="5.14481" height="5.0909" rx="2.54545" fill="#DB5962"/>
<rect id="Rectangle 3 Copy 75" x="108.607" y="15.4102" width="5.14481" height="5.09102" rx="2.54551" fill="#DB5962"/>
<rect id="Rectangle 3 Copy 39_2" x="0.566406" y="76.5" width="5.14481" height="5.09102" rx="2.54551" fill="#DB5962"/>
<rect id="Rectangle 3 Copy 76_2" x="0.566406" y="30.6816" width="5.14481" height="5.09067" rx="2.54534" fill="#DB5962"/>
<rect id="Rectangle 3 Copy 38_2" x="16.001" y="76.5" width="5.14481" height="5.09102" rx="2.54551" fill="#DB5962"/>
<rect id="Rectangle 3 Copy 77_2" x="16.001" y="30.6816" width="5.14481" height="5.09067" rx="2.54534" fill="#DB5962"/>
<rect id="Rectangle 3 Copy 37_2" x="31.4355" y="76.5" width="5.14481" height="5.09102" rx="2.54551" fill="#DB5962"/>
<rect id="Rectangle 3 Copy 78_2" x="31.4355" y="30.6816" width="5.14481" height="5.09067" rx="2.54534" fill="#DB5962"/>
<rect id="Rectangle 3 Copy 36_2" x="46.8701" y="76.5" width="5.14481" height="5.09102" rx="2.54551" fill="#DB5962"/>
<rect id="Rectangle 3 Copy 79_2" x="46.8701" y="30.6816" width="5.14481" height="5.09067" rx="2.54534" fill="#DB5962"/>
<rect id="Rectangle 3 Copy 35_2" x="62.3047" y="76.5" width="5.14481" height="5.09102" rx="2.54551" fill="#DB5962"/>
<rect id="Rectangle 3 Copy 80_2" x="62.3047" y="30.6816" width="5.14481" height="5.09067" rx="2.54534" fill="#DB5962"/>
<rect id="Rectangle 3 Copy 34" x="77.7383" y="76.5" width="5.14481" height="5.09102" rx="2.54551" fill="#DB5962"/>
<rect id="Rectangle 3 Copy 81" x="77.7383" y="30.6816" width="5.14481" height="5.09067" rx="2.54534" fill="#DB5962"/>
<rect id="Rectangle 3 Copy 33" x="93.1729" y="76.5" width="5.14481" height="5.09102" rx="2.54551" fill="#DB5962"/>
<rect id="Rectangle 3 Copy 82" x="93.1729" y="30.6816" width="5.14481" height="5.09067" rx="2.54534" fill="#DB5962"/>
<rect id="Rectangle 3 Copy 32" x="108.607" y="76.5" width="5.14481" height="5.09102" rx="2.54551" fill="#DB5962"/>
<rect id="Rectangle 3 Copy 83" x="108.607" y="30.6816" width="5.14481" height="5.09067" rx="2.54534" fill="#DB5962"/>
<rect id="Rectangle 3 Copy 49_2" x="0.566406" y="91.7734" width="5.14481" height="5.09113" rx="2.54557" fill="#DB5962"/>
<rect id="Rectangle 3 Copy 48_2" x="16.001" y="91.7734" width="5.14481" height="5.09113" rx="2.54557" fill="#DB5962"/>
<rect id="Rectangle 3 Copy 47_2" x="31.4355" y="91.7734" width="5.14481" height="5.09113" rx="2.54557" fill="#DB5962"/>
<rect id="Rectangle 3 Copy 46_2" x="46.8701" y="91.7734" width="5.14481" height="5.09113" rx="2.54557" fill="#DB5962"/>
<rect id="Rectangle 3 Copy 45_2" x="62.3047" y="91.7734" width="5.14481" height="5.09113" rx="2.54557" fill="#DB5962"/>
<rect id="Rectangle 3 Copy 44" x="77.7383" y="91.7734" width="5.14481" height="5.09113" rx="2.54557" fill="#DB5962"/>
<rect id="Rectangle 3 Copy 43" x="93.1729" y="91.7734" width="5.14481" height="5.09113" rx="2.54557" fill="#DB5962"/>
<rect id="Rectangle 3 Copy 42" x="108.607" y="91.7734" width="5.14481" height="5.09113" rx="2.54557" fill="#DB5962"/>
<rect id="Rectangle 3 Copy 59_2" x="0.566406" y="107.047" width="5.14481" height="5.09079" rx="2.54539" fill="#DB5962"/>
<rect id="Rectangle 3 Copy 58_2" x="16.001" y="107.047" width="5.14481" height="5.09079" rx="2.54539" fill="#DB5962"/>
<rect id="Rectangle 3 Copy 57_2" x="31.4355" y="107.047" width="5.14481" height="5.09079" rx="2.54539" fill="#DB5962"/>
<rect id="Rectangle 3 Copy 56_2" x="46.8701" y="107.047" width="5.14481" height="5.09079" rx="2.54539" fill="#DB5962"/>
<rect id="Rectangle 3 Copy 55_2" x="62.3047" y="107.047" width="5.14481" height="5.09079" rx="2.54539" fill="#DB5962"/>
<rect id="Rectangle 3 Copy 54" x="77.7383" y="107.047" width="5.14481" height="5.09079" rx="2.54539" fill="#DB5962"/>
<rect id="Rectangle 3 Copy 53" x="93.1729" y="107.047" width="5.14481" height="5.09079" rx="2.54539" fill="#DB5962"/>
<rect id="Rectangle 3 Copy 52" x="108.607" y="107.047" width="5.14481" height="5.09079" rx="2.54539" fill="#DB5962"/>
</g>
</g>
</svg>
