<svg width="88" height="237" viewBox="0 0 88 237" fill="none" xmlns="http://www.w3.org/2000/svg">
<g id="Group 33839">
<g id="Titik-titik">
<rect id="Rectangle 3 Copy 19" x="42.1816" y="123.742" width="5.14481" height="5.09102" rx="2.54551" transform="rotate(90 42.1816 123.742)" fill="#D38CBD"/>
<rect id="Rectangle 3 Copy 60" x="88" y="123.742" width="5.14481" height="5.0909" rx="2.54545" transform="rotate(90 88 123.742)" fill="#D38CBD"/>
<rect id="Rectangle 3 Copy 18" x="42.1816" y="139.178" width="5.14481" height="5.09102" rx="2.54551" transform="rotate(90 42.1816 139.178)" fill="#D38CBD"/>
<rect id="Rectangle 3 Copy 61" x="88" y="139.178" width="5.14481" height="5.0909" rx="2.54545" transform="rotate(90 88 139.178)" fill="#D38CBD"/>
<rect id="Rectangle 3 Copy 17" x="42.1816" y="154.611" width="5.14481" height="5.09102" rx="2.54551" transform="rotate(90 42.1816 154.611)" fill="#D38CBD"/>
<rect id="Rectangle 3 Copy 62" x="88" y="154.611" width="5.14481" height="5.0909" rx="2.54545" transform="rotate(90 88 154.611)" fill="#D38CBD"/>
<rect id="Rectangle 3 Copy 16" x="42.1816" y="170.045" width="5.14481" height="5.09102" rx="2.54551" transform="rotate(90 42.1816 170.045)" fill="#D38CBD"/>
<rect id="Rectangle 3 Copy 63" x="88" y="170.045" width="5.14481" height="5.0909" rx="2.54545" transform="rotate(90 88 170.045)" fill="#D38CBD"/>
<rect id="Rectangle 3 Copy 15" x="42.1816" y="185.48" width="5.14481" height="5.09102" rx="2.54551" transform="rotate(90 42.1816 185.48)" fill="#D38CBD"/>
<rect id="Rectangle 3 Copy 64" x="88" y="185.48" width="5.14481" height="5.0909" rx="2.54545" transform="rotate(90 88 185.48)" fill="#D38CBD"/>
<rect id="Rectangle 3 Copy 14" x="42.1816" y="200.914" width="5.14481" height="5.09102" rx="2.54551" transform="rotate(90 42.1816 200.914)" fill="#D38CBD"/>
<rect id="Rectangle 3 Copy 65" x="88" y="200.914" width="5.14481" height="5.0909" rx="2.54545" transform="rotate(90 88 200.914)" fill="#D38CBD"/>
<rect id="Rectangle 3 Copy 13" x="42.1816" y="216.35" width="5.14481" height="5.09102" rx="2.54551" transform="rotate(90 42.1816 216.35)" fill="#D38CBD"/>
<rect id="Rectangle 3 Copy 66" x="88" y="216.35" width="5.14481" height="5.0909" rx="2.54545" transform="rotate(90 88 216.35)" fill="#D38CBD"/>
<rect id="Rectangle 3 Copy 12" x="42.1816" y="231.783" width="5.14481" height="5.09102" rx="2.54551" transform="rotate(90 42.1816 231.783)" fill="#D38CBD"/>
<rect id="Rectangle 3 Copy 67" x="88" y="231.783" width="5.14481" height="5.0909" rx="2.54545" transform="rotate(90 88 231.783)" fill="#D38CBD"/>
<rect id="Rectangle 3 Copy 29" x="26.9082" y="123.742" width="5.14481" height="5.0909" rx="2.54545" transform="rotate(90 26.9082 123.742)" fill="#D38CBD"/>
<rect id="Rectangle 3 Copy 68" x="72.7266" y="123.742" width="5.14481" height="5.09102" rx="2.54551" transform="rotate(90 72.7266 123.742)" fill="#D38CBD"/>
<rect id="Rectangle 3 Copy 28" x="26.9082" y="139.178" width="5.14481" height="5.0909" rx="2.54545" transform="rotate(90 26.9082 139.178)" fill="#D38CBD"/>
<rect id="Rectangle 3 Copy 69" x="72.7266" y="139.178" width="5.14481" height="5.09102" rx="2.54551" transform="rotate(90 72.7266 139.178)" fill="#D38CBD"/>
<rect id="Rectangle 3 Copy 27" x="26.9082" y="154.611" width="5.14481" height="5.0909" rx="2.54545" transform="rotate(90 26.9082 154.611)" fill="#D38CBD"/>
<rect id="Rectangle 3 Copy 70" x="72.7266" y="154.611" width="5.14481" height="5.09102" rx="2.54551" transform="rotate(90 72.7266 154.611)" fill="#D38CBD"/>
<rect id="Rectangle 3 Copy 26" x="26.9082" y="170.045" width="5.14481" height="5.0909" rx="2.54545" transform="rotate(90 26.9082 170.045)" fill="#D38CBD"/>
<rect id="Rectangle 3 Copy 71" x="72.7266" y="170.045" width="5.14481" height="5.09102" rx="2.54551" transform="rotate(90 72.7266 170.045)" fill="#D38CBD"/>
<rect id="Rectangle 3 Copy 25" x="26.9082" y="185.48" width="5.14481" height="5.0909" rx="2.54545" transform="rotate(90 26.9082 185.48)" fill="#D38CBD"/>
<rect id="Rectangle 3 Copy 72" x="72.7266" y="185.48" width="5.14481" height="5.09102" rx="2.54551" transform="rotate(90 72.7266 185.48)" fill="#D38CBD"/>
<rect id="Rectangle 3 Copy 24" x="26.9082" y="200.914" width="5.14481" height="5.0909" rx="2.54545" transform="rotate(90 26.9082 200.914)" fill="#D38CBD"/>
<rect id="Rectangle 3 Copy 73" x="72.7266" y="200.914" width="5.14481" height="5.09102" rx="2.54551" transform="rotate(90 72.7266 200.914)" fill="#D38CBD"/>
<rect id="Rectangle 3 Copy 23" x="26.9082" y="216.35" width="5.14481" height="5.0909" rx="2.54545" transform="rotate(90 26.9082 216.35)" fill="#D38CBD"/>
<rect id="Rectangle 3 Copy 74" x="72.7266" y="216.35" width="5.14481" height="5.09102" rx="2.54551" transform="rotate(90 72.7266 216.35)" fill="#D38CBD"/>
<rect id="Rectangle 3 Copy 22" x="26.9082" y="231.783" width="5.14481" height="5.0909" rx="2.54545" transform="rotate(90 26.9082 231.783)" fill="#D38CBD"/>
<rect id="Rectangle 3 Copy 75" x="72.7266" y="231.783" width="5.14481" height="5.09102" rx="2.54551" transform="rotate(90 72.7266 231.783)" fill="#D38CBD"/>
<rect id="Rectangle 3 Copy 39" x="11.6362" y="123.742" width="5.14481" height="5.09102" rx="2.54551" transform="rotate(90 11.6362 123.742)" fill="#D38CBD"/>
<rect id="Rectangle 3 Copy 76" x="57.4546" y="123.742" width="5.14481" height="5.09067" rx="2.54534" transform="rotate(90 57.4546 123.742)" fill="#D38CBD"/>
<rect id="Rectangle 3 Copy 38" x="11.6362" y="139.178" width="5.14481" height="5.09102" rx="2.54551" transform="rotate(90 11.6362 139.178)" fill="#D38CBD"/>
<rect id="Rectangle 3 Copy 77" x="57.4546" y="139.178" width="5.14481" height="5.09067" rx="2.54534" transform="rotate(90 57.4546 139.178)" fill="#D38CBD"/>
<rect id="Rectangle 3 Copy 37" x="11.6362" y="154.611" width="5.14481" height="5.09102" rx="2.54551" transform="rotate(90 11.6362 154.611)" fill="#D38CBD"/>
<rect id="Rectangle 3 Copy 78" x="57.4546" y="154.611" width="5.14481" height="5.09067" rx="2.54534" transform="rotate(90 57.4546 154.611)" fill="#D38CBD"/>
<rect id="Rectangle 3 Copy 36" x="11.6362" y="170.045" width="5.14481" height="5.09102" rx="2.54551" transform="rotate(90 11.6362 170.045)" fill="#D38CBD"/>
<rect id="Rectangle 3 Copy 79" x="57.4546" y="170.045" width="5.14481" height="5.09067" rx="2.54534" transform="rotate(90 57.4546 170.045)" fill="#D38CBD"/>
<rect id="Rectangle 3 Copy 35" x="11.6362" y="185.48" width="5.14481" height="5.09102" rx="2.54551" transform="rotate(90 11.6362 185.48)" fill="#D38CBD"/>
<rect id="Rectangle 3 Copy 80" x="57.4546" y="185.48" width="5.14481" height="5.09067" rx="2.54534" transform="rotate(90 57.4546 185.48)" fill="#D38CBD"/>
<rect id="Rectangle 3 Copy 34" x="11.6362" y="200.914" width="5.14481" height="5.09102" rx="2.54551" transform="rotate(90 11.6362 200.914)" fill="#D38CBD"/>
<rect id="Rectangle 3 Copy 81" x="57.4546" y="200.914" width="5.14481" height="5.09067" rx="2.54534" transform="rotate(90 57.4546 200.914)" fill="#D38CBD"/>
<rect id="Rectangle 3 Copy 33" x="11.6362" y="216.35" width="5.14481" height="5.09102" rx="2.54551" transform="rotate(90 11.6362 216.35)" fill="#D38CBD"/>
<rect id="Rectangle 3 Copy 82" x="57.4546" y="216.35" width="5.14481" height="5.09067" rx="2.54534" transform="rotate(90 57.4546 216.35)" fill="#D38CBD"/>
<rect id="Rectangle 3 Copy 32" x="11.6362" y="231.783" width="5.14481" height="5.09102" rx="2.54551" transform="rotate(90 11.6362 231.783)" fill="#D38CBD"/>
<rect id="Rectangle 3 Copy 83" x="57.4546" y="231.783" width="5.14481" height="5.09067" rx="2.54534" transform="rotate(90 57.4546 231.783)" fill="#D38CBD"/>
</g>
<g id="Titik-titik_2">
<rect id="Rectangle 3 Copy 19_2" x="42.1816" y="0.742188" width="5.14481" height="5.09102" rx="2.54551" transform="rotate(90 42.1816 0.742188)" fill="#D38CBD"/>
<rect id="Rectangle 3 Copy 60_2" x="88" y="0.742188" width="5.14481" height="5.0909" rx="2.54545" transform="rotate(90 88 0.742188)" fill="#D38CBD"/>
<rect id="Rectangle 3 Copy 18_2" x="42.1816" y="16.1777" width="5.14481" height="5.09102" rx="2.54551" transform="rotate(90 42.1816 16.1777)" fill="#D38CBD"/>
<rect id="Rectangle 3 Copy 61_2" x="88" y="16.1777" width="5.14481" height="5.0909" rx="2.54545" transform="rotate(90 88 16.1777)" fill="#D38CBD"/>
<rect id="Rectangle 3 Copy 17_2" x="42.1816" y="31.6113" width="5.14481" height="5.09102" rx="2.54551" transform="rotate(90 42.1816 31.6113)" fill="#D38CBD"/>
<rect id="Rectangle 3 Copy 62_2" x="88" y="31.6113" width="5.14481" height="5.0909" rx="2.54545" transform="rotate(90 88 31.6113)" fill="#D38CBD"/>
<rect id="Rectangle 3 Copy 16_2" x="42.1816" y="47.0449" width="5.14481" height="5.09102" rx="2.54551" transform="rotate(90 42.1816 47.0449)" fill="#D38CBD"/>
<rect id="Rectangle 3 Copy 63_2" x="88" y="47.0449" width="5.14481" height="5.0909" rx="2.54545" transform="rotate(90 88 47.0449)" fill="#D38CBD"/>
<rect id="Rectangle 3 Copy 15_2" x="42.1816" y="62.4805" width="5.14481" height="5.09102" rx="2.54551" transform="rotate(90 42.1816 62.4805)" fill="#D38CBD"/>
<rect id="Rectangle 3 Copy 64_2" x="88" y="62.4805" width="5.14481" height="5.0909" rx="2.54545" transform="rotate(90 88 62.4805)" fill="#D38CBD"/>
<rect id="Rectangle 3 Copy 14_2" x="42.1816" y="77.9141" width="5.14481" height="5.09102" rx="2.54551" transform="rotate(90 42.1816 77.9141)" fill="#D38CBD"/>
<rect id="Rectangle 3 Copy 65_2" x="88" y="77.9141" width="5.14481" height="5.0909" rx="2.54545" transform="rotate(90 88 77.9141)" fill="#D38CBD"/>
<rect id="Rectangle 3 Copy 13_2" x="42.1816" y="93.3496" width="5.14481" height="5.09102" rx="2.54551" transform="rotate(90 42.1816 93.3496)" fill="#D38CBD"/>
<rect id="Rectangle 3 Copy 66_2" x="88" y="93.3496" width="5.14481" height="5.0909" rx="2.54545" transform="rotate(90 88 93.3496)" fill="#D38CBD"/>
<rect id="Rectangle 3 Copy 12_2" x="42.1816" y="108.783" width="5.14481" height="5.09102" rx="2.54551" transform="rotate(90 42.1816 108.783)" fill="#D38CBD"/>
<rect id="Rectangle 3 Copy 67_2" x="88" y="108.783" width="5.14481" height="5.0909" rx="2.54545" transform="rotate(90 88 108.783)" fill="#D38CBD"/>
<rect id="Rectangle 3 Copy 29_2" x="26.9082" y="0.742188" width="5.14481" height="5.0909" rx="2.54545" transform="rotate(90 26.9082 0.742188)" fill="#D38CBD"/>
<rect id="Rectangle 3 Copy 68_2" x="72.7266" y="0.742188" width="5.14481" height="5.09102" rx="2.54551" transform="rotate(90 72.7266 0.742188)" fill="#D38CBD"/>
<rect id="Rectangle 3 Copy 28_2" x="26.9082" y="16.1777" width="5.14481" height="5.0909" rx="2.54545" transform="rotate(90 26.9082 16.1777)" fill="#D38CBD"/>
<rect id="Rectangle 3 Copy 69_2" x="72.7266" y="16.1777" width="5.14481" height="5.09102" rx="2.54551" transform="rotate(90 72.7266 16.1777)" fill="#D38CBD"/>
<rect id="Rectangle 3 Copy 27_2" x="26.9082" y="31.6113" width="5.14481" height="5.0909" rx="2.54545" transform="rotate(90 26.9082 31.6113)" fill="#D38CBD"/>
<rect id="Rectangle 3 Copy 70_2" x="72.7266" y="31.6113" width="5.14481" height="5.09102" rx="2.54551" transform="rotate(90 72.7266 31.6113)" fill="#D38CBD"/>
<rect id="Rectangle 3 Copy 26_2" x="26.9082" y="47.0449" width="5.14481" height="5.0909" rx="2.54545" transform="rotate(90 26.9082 47.0449)" fill="#D38CBD"/>
<rect id="Rectangle 3 Copy 71_2" x="72.7266" y="47.0449" width="5.14481" height="5.09102" rx="2.54551" transform="rotate(90 72.7266 47.0449)" fill="#D38CBD"/>
<rect id="Rectangle 3 Copy 25_2" x="26.9082" y="62.4805" width="5.14481" height="5.0909" rx="2.54545" transform="rotate(90 26.9082 62.4805)" fill="#D38CBD"/>
<rect id="Rectangle 3 Copy 72_2" x="72.7266" y="62.4805" width="5.14481" height="5.09102" rx="2.54551" transform="rotate(90 72.7266 62.4805)" fill="#D38CBD"/>
<rect id="Rectangle 3 Copy 24_2" x="26.9082" y="77.9141" width="5.14481" height="5.0909" rx="2.54545" transform="rotate(90 26.9082 77.9141)" fill="#D38CBD"/>
<rect id="Rectangle 3 Copy 73_2" x="72.7266" y="77.9141" width="5.14481" height="5.09102" rx="2.54551" transform="rotate(90 72.7266 77.9141)" fill="#D38CBD"/>
<rect id="Rectangle 3 Copy 23_2" x="26.9082" y="93.3496" width="5.14481" height="5.0909" rx="2.54545" transform="rotate(90 26.9082 93.3496)" fill="#D38CBD"/>
<rect id="Rectangle 3 Copy 74_2" x="72.7266" y="93.3496" width="5.14481" height="5.09102" rx="2.54551" transform="rotate(90 72.7266 93.3496)" fill="#D38CBD"/>
<rect id="Rectangle 3 Copy 22_2" x="26.9082" y="108.783" width="5.14481" height="5.0909" rx="2.54545" transform="rotate(90 26.9082 108.783)" fill="#D38CBD"/>
<rect id="Rectangle 3 Copy 75_2" x="72.7266" y="108.783" width="5.14481" height="5.09102" rx="2.54551" transform="rotate(90 72.7266 108.783)" fill="#D38CBD"/>
<rect id="Rectangle 3 Copy 39_2" x="11.6362" y="0.742188" width="5.14481" height="5.09102" rx="2.54551" transform="rotate(90 11.6362 0.742188)" fill="#D38CBD"/>
<rect id="Rectangle 3 Copy 76_2" x="57.4546" y="0.742188" width="5.14481" height="5.09067" rx="2.54534" transform="rotate(90 57.4546 0.742188)" fill="#D38CBD"/>
<rect id="Rectangle 3 Copy 38_2" x="11.6362" y="16.1777" width="5.14481" height="5.09102" rx="2.54551" transform="rotate(90 11.6362 16.1777)" fill="#D38CBD"/>
<rect id="Rectangle 3 Copy 77_2" x="57.4546" y="16.1777" width="5.14481" height="5.09067" rx="2.54534" transform="rotate(90 57.4546 16.1777)" fill="#D38CBD"/>
<rect id="Rectangle 3 Copy 37_2" x="11.6362" y="31.6113" width="5.14481" height="5.09102" rx="2.54551" transform="rotate(90 11.6362 31.6113)" fill="#D38CBD"/>
<rect id="Rectangle 3 Copy 78_2" x="57.4546" y="31.6113" width="5.14481" height="5.09067" rx="2.54534" transform="rotate(90 57.4546 31.6113)" fill="#D38CBD"/>
<rect id="Rectangle 3 Copy 36_2" x="11.6362" y="47.0449" width="5.14481" height="5.09102" rx="2.54551" transform="rotate(90 11.6362 47.0449)" fill="#D38CBD"/>
<rect id="Rectangle 3 Copy 79_2" x="57.4546" y="47.0449" width="5.14481" height="5.09067" rx="2.54534" transform="rotate(90 57.4546 47.0449)" fill="#D38CBD"/>
<rect id="Rectangle 3 Copy 35_2" x="11.6362" y="62.4805" width="5.14481" height="5.09102" rx="2.54551" transform="rotate(90 11.6362 62.4805)" fill="#D38CBD"/>
<rect id="Rectangle 3 Copy 80_2" x="57.4546" y="62.4805" width="5.14481" height="5.09067" rx="2.54534" transform="rotate(90 57.4546 62.4805)" fill="#D38CBD"/>
<rect id="Rectangle 3 Copy 34_2" x="11.6362" y="77.9141" width="5.14481" height="5.09102" rx="2.54551" transform="rotate(90 11.6362 77.9141)" fill="#D38CBD"/>
<rect id="Rectangle 3 Copy 81_2" x="57.4546" y="77.9141" width="5.14481" height="5.09067" rx="2.54534" transform="rotate(90 57.4546 77.9141)" fill="#D38CBD"/>
<rect id="Rectangle 3 Copy 33_2" x="11.6362" y="93.3496" width="5.14481" height="5.09102" rx="2.54551" transform="rotate(90 11.6362 93.3496)" fill="#D38CBD"/>
<rect id="Rectangle 3 Copy 82_2" x="57.4546" y="93.3496" width="5.14481" height="5.09067" rx="2.54534" transform="rotate(90 57.4546 93.3496)" fill="#D38CBD"/>
<rect id="Rectangle 3 Copy 32_2" x="11.6362" y="108.783" width="5.14481" height="5.09102" rx="2.54551" transform="rotate(90 11.6362 108.783)" fill="#D38CBD"/>
<rect id="Rectangle 3 Copy 83_2" x="57.4546" y="108.783" width="5.14481" height="5.09067" rx="2.54534" transform="rotate(90 57.4546 108.783)" fill="#D38CBD"/>
</g>
</g>
</svg>
